<svg width="123" height="109" viewBox="0 0 123 109" fill="none" xmlns="http://www.w3.org/2000/svg">
<rect width="122.957" height="108.264" fill="white"/>
<mask id="mask0_94_47" style="mask-type:luminance" maskUnits="userSpaceOnUse" x="16" y="2" width="43" height="93">
<path d="M16.4645 2.51025H58.621V94.4123H16.4645V2.51025Z" fill="white"/>
</mask>
<g mask="url(#mask0_94_47)">
<path d="M37.3232 82.1201L37.3094 25.4431" stroke="black" stroke-width="4.18165" stroke-linecap="round"/>
</g>
<mask id="mask1_94_47" style="mask-type:luminance" maskUnits="userSpaceOnUse" x="24" y="1" width="44" height="94">
<path d="M24.6616 1.25537H67.9891V94.4126H24.6616V1.25537Z" fill="white"/>
</mask>
<g mask="url(#mask1_94_47)">
<path d="M46.3482 82.1201L46.2613 24.4774" stroke="black" stroke-width="4.18163" stroke-linecap="round"/>
</g>
<path d="M46.2567 82.3555H37.5153" stroke="black" stroke-width="3.52139"/>
<mask id="mask2_94_47" style="mask-type:luminance" maskUnits="userSpaceOnUse" x="22" y="52" width="39" height="43">
<path d="M22.3195 52.7202H60.963V94.4127H22.3195V52.7202Z" fill="white"/>
</mask>
<g mask="url(#mask2_94_47)">
<path d="M36.9801 80.8506L46.5906 68.7004" stroke="black" stroke-width="2.86112"/>
</g>
<path d="M36.6507 44.3306L46.2613 32.1852" stroke="black" stroke-width="2.86112"/>
<path d="M36.9801 62.644L46.5906 50.4987" stroke="black" stroke-width="2.86112"/>
<path d="M37.3049 60.232L46.9154 72.3774" stroke="black" stroke-width="1.98077"/>
<path d="M37.3049 41.712L46.9154 53.8573" stroke="black" stroke-width="1.98077"/>
<path d="M37.378 23.4771L46.9886 35.6225" stroke="black" stroke-width="1.98077"/>
<mask id="mask3_94_47" style="mask-type:luminance" maskUnits="userSpaceOnUse" x="36" y="1" width="12" height="9">
<path d="M36.5227 1.90723H47.2859V9.28175H36.5227V1.90723Z" fill="white"/>
</mask>
<g mask="url(#mask3_94_47)">
<mask id="mask4_94_47" style="mask-type:luminance" maskUnits="userSpaceOnUse" x="36" y="1" width="12" height="9">
<path d="M42.7528 2.34362L47.1167 8.154C47.2768 8.35993 47.3042 8.64923 47.199 8.88949C47.0892 9.12975 46.8651 9.28175 46.6135 9.28175H37.1997C36.9526 9.28175 36.7239 9.12975 36.6141 8.88949C36.5089 8.64923 36.541 8.35993 36.6965 8.154L41.0603 2.34362C41.2662 2.06904 41.5772 1.90723 41.9066 1.90723C42.2359 1.90723 42.547 2.06904 42.7528 2.34362Z" fill="white"/>
</mask>
<g mask="url(#mask4_94_47)">
<mask id="mask5_94_47" style="mask-type:luminance" maskUnits="userSpaceOnUse" x="36" y="1" width="12" height="9">
<path d="M42.7528 2.34362L47.1167 8.154C47.2768 8.35993 47.3042 8.64923 47.199 8.88949C47.0892 9.12975 46.8651 9.28175 46.6135 9.28175H37.1997C36.9526 9.28175 36.7239 9.12975 36.6141 8.88949C36.5089 8.64923 36.541 8.35993 36.6965 8.154L41.0603 2.34362C41.2662 2.06904 41.5772 1.90723 41.9066 1.90723C42.2359 1.90723 42.547 2.06904 42.7528 2.34362Z" fill="white"/>
</mask>
<g mask="url(#mask5_94_47)">
<path d="M35.8457 1.21094H47.9629V9.28172H35.8457V1.21094Z" fill="black"/>
</g>
</g>
</g>
<mask id="mask6_94_47" style="mask-type:luminance" maskUnits="userSpaceOnUse" x="40" y="5" width="4" height="3">
<path d="M40.3147 5.05518H43.503V7.46268H40.3147V5.05518Z" fill="white"/>
</mask>
<g mask="url(#mask6_94_47)">
<mask id="mask7_94_47" style="mask-type:luminance" maskUnits="userSpaceOnUse" x="40" y="5" width="4" height="3">
<path d="M42.021 5.1238L43.4756 7.29595C43.4985 7.32537 43.5031 7.3695 43.4848 7.40382C43.4665 7.43815 43.4344 7.46266 43.3978 7.46266H40.4154C40.3788 7.46266 40.3468 7.43815 40.3285 7.40382C40.3102 7.3695 40.3148 7.32537 40.3377 7.29595L41.7923 5.1238C41.8197 5.08457 41.8609 5.06006 41.9066 5.06006C41.9524 5.06006 41.9935 5.08457 42.021 5.1238Z" fill="white"/>
</mask>
<g mask="url(#mask7_94_47)">
<mask id="mask8_94_47" style="mask-type:luminance" maskUnits="userSpaceOnUse" x="40" y="5" width="4" height="3">
<path d="M42.021 5.1238L43.4756 7.29595C43.4985 7.32537 43.5031 7.3695 43.4848 7.40382C43.4665 7.43815 43.4344 7.46266 43.3978 7.46266H40.4154C40.3788 7.46266 40.3468 7.43815 40.3285 7.40382C40.3102 7.3695 40.3148 7.32537 40.3377 7.29595L41.7923 5.1238C41.8197 5.08457 41.8609 5.06006 41.9066 5.06006C41.9524 5.06006 41.9935 5.08457 42.021 5.1238Z" fill="white"/>
</mask>
<g mask="url(#mask8_94_47)">
<path d="M40.2232 4.95752H43.5853V7.46309H40.2232V4.95752Z" fill="white"/>
</g>
</g>
</g>
<mask id="mask9_94_47" style="mask-type:luminance" maskUnits="userSpaceOnUse" x="32" y="7" width="22" height="19">
<path d="M32.7626 7.46289H53.786V25.3451H32.7626V7.46289Z" fill="white"/>
</mask>
<g mask="url(#mask9_94_47)">
<mask id="mask10_94_47" style="mask-type:luminance" maskUnits="userSpaceOnUse" x="32" y="7" width="22" height="19">
<path d="M36.4357 7.46289H50.0854C52.1118 7.46289 53.754 9.22317 53.754 11.4002V21.4078C53.754 23.5848 52.1118 25.3451 50.0854 25.3451H36.4357C34.4048 25.3451 32.7626 23.5848 32.7626 21.4078V11.4002C32.7626 9.22317 34.4048 7.46289 36.4357 7.46289Z" fill="white"/>
</mask>
<g mask="url(#mask10_94_47)">
<mask id="mask11_94_47" style="mask-type:luminance" maskUnits="userSpaceOnUse" x="32" y="7" width="22" height="19">
<path d="M36.4357 7.46289H50.0854C52.1118 7.46289 53.754 9.22317 53.754 11.4002V21.4078C53.754 23.5848 52.1118 25.3451 50.0854 25.3451H36.4357C34.4048 25.3451 32.7626 23.5848 32.7626 21.4078V11.4002C32.7626 9.22317 34.4048 7.46289 36.4357 7.46289Z" fill="white"/>
</mask>
<g mask="url(#mask11_94_47)">
<path d="M32.7626 7.46289H53.7494V25.3451H32.7626V7.46289Z" fill="black"/>
</g>
</g>
</g>
<mask id="mask12_94_47" style="mask-type:luminance" maskUnits="userSpaceOnUse" x="42" y="12" width="7" height="7">
<path d="M42.7162 12.9741H48.4615V18.7011H42.7162V12.9741Z" fill="white"/>
</mask>
<g mask="url(#mask12_94_47)">
<mask id="mask13_94_47" style="mask-type:luminance" maskUnits="userSpaceOnUse" x="42" y="12" width="7" height="7">
<path d="M43.8781 12.9741H47.2859C47.9263 12.9741 48.4478 13.5282 48.4478 14.2146V17.4606C48.4478 18.1471 47.9263 18.7011 47.2859 18.7011H43.8781C43.2377 18.7011 42.7162 18.1471 42.7162 17.4606V14.2146C42.7162 13.5282 43.2377 12.9741 43.8781 12.9741Z" fill="white"/>
</mask>
<g mask="url(#mask13_94_47)">
<mask id="mask14_94_47" style="mask-type:luminance" maskUnits="userSpaceOnUse" x="42" y="12" width="7" height="7">
<path d="M43.8781 12.9741H47.2859C47.9263 12.9741 48.4478 13.5282 48.4478 14.2146V17.4606C48.4478 18.1471 47.9263 18.7011 47.2859 18.7011H43.8781C43.2377 18.7011 42.7162 18.1471 42.7162 17.4606V14.2146C42.7162 13.5282 43.2377 12.9741 43.8781 12.9741Z" fill="white"/>
</mask>
<g mask="url(#mask14_94_47)">
<path d="M42.7162 12.9741H48.4387V18.7011H42.7162V12.9741Z" fill="white"/>
</g>
</g>
</g>
<mask id="mask15_94_47" style="mask-type:luminance" maskUnits="userSpaceOnUse" x="0" y="13" width="49" height="29">
<path d="M0.532257 13.8076H48.0818V41.4228H0.532257V13.8076Z" fill="white"/>
</mask>
<g mask="url(#mask15_94_47)">
<path d="M36.326 26.375L11.5517 29.0863" stroke="black" stroke-width="2.20086"/>
</g>
<mask id="mask16_94_47" style="mask-type:luminance" maskUnits="userSpaceOnUse" x="0" y="10" width="46" height="28">
<path d="M0.532257 10.042H45.7398V37.6572H0.532257V10.042Z" fill="white"/>
</mask>
<g mask="url(#mask16_94_47)">
<path d="M34.5877 22.7857L10.8976 25.355" stroke="black" stroke-width="2.20086"/>
</g>
<path d="M33.618 23.7808L30.3748 26.7325" stroke="black" stroke-width="0.220087"/>
<path d="M30.4572 24.0752L27.214 27.027" stroke="black" stroke-width="0.220087"/>
<path d="M27.4656 24.335L24.2224 27.2867" stroke="black" stroke-width="0.220087"/>
<path d="M24.378 24.6782L21.1302 27.63" stroke="black" stroke-width="0.220087"/>
<path d="M21.4641 24.894L18.2164 27.8507" stroke="black" stroke-width="0.220087"/>
<path d="M18.2942 25.3156L15.051 28.2723" stroke="black" stroke-width="0.220087"/>
<path d="M24.442 27.3013L24.0623 24.7221" stroke="black" stroke-width="0.220086" stroke-linecap="round"/>
<path d="M21.4458 27.5908L21.0708 25.0117" stroke="black" stroke-width="0.220086" stroke-linecap="round"/>
<path d="M18.4543 27.8799L18.0792 25.3008" stroke="black" stroke-width="0.220086" stroke-linecap="round"/>
<path d="M15.2751 28.125L14.9001 25.5459" stroke="black" stroke-width="0.220086" stroke-linecap="round"/>
<path d="M33.7049 25.8062L33.3298 23.227" stroke="black" stroke-width="0.220086" stroke-linecap="round"/>
<path d="M30.7133 26.0952L30.3337 23.5161" stroke="black" stroke-width="0.220086" stroke-linecap="round"/>
<path d="M27.5388 26.5708L27.1637 23.9917" stroke="black" stroke-width="0.220086" stroke-linecap="round"/>
<path d="M11.5288 29.4443L10.9021 25.1393" stroke="black" stroke-width="1.5406" stroke-linecap="round"/>
<path d="M14.8543 25.894L11.6066 28.8458" stroke="black" stroke-width="0.220087"/>
<path d="M12.1509 28.7627L11.7758 26.1836" stroke="black" stroke-width="0.220086" stroke-linecap="round"/>
<mask id="mask17_94_47" style="mask-type:luminance" maskUnits="userSpaceOnUse" x="52" y="77" width="13" height="8">
<path d="M52.9763 77.9131H64.0278V84.0863H52.9763V77.9131Z" fill="white"/>
</mask>
<g mask="url(#mask17_94_47)">
<mask id="mask18_94_47" style="mask-type:luminance" maskUnits="userSpaceOnUse" x="52" y="77" width="13" height="8">
<path d="M54.3303 77.9131H62.6509C63.0123 77.9131 63.3554 78.0651 63.6069 78.3397C63.8631 78.6094 64.0049 78.982 64.0049 79.3645V82.6398C64.0049 83.0223 63.8631 83.39 63.6069 83.6646C63.3554 83.9343 63.0123 84.0863 62.6509 84.0863H54.3303C53.9735 84.0863 53.6259 83.9343 53.3743 83.6646C53.1181 83.39 52.9763 83.0223 52.9763 82.6398V79.3645C52.9763 78.982 53.1181 78.6094 53.3743 78.3397C53.6259 78.0651 53.9735 77.9131 54.3303 77.9131Z" fill="white"/>
</mask>
<g mask="url(#mask18_94_47)">
<mask id="mask19_94_47" style="mask-type:luminance" maskUnits="userSpaceOnUse" x="52" y="77" width="13" height="8">
<path d="M54.3303 77.9131H62.6509C63.0123 77.9131 63.3554 78.0651 63.6069 78.3397C63.8631 78.6094 64.0049 78.982 64.0049 79.3645V82.6398C64.0049 83.0223 63.8631 83.39 63.6069 83.6646C63.3554 83.9343 63.0123 84.0863 62.6509 84.0863H54.3303C53.9735 84.0863 53.6259 83.9343 53.3743 83.6646C53.1181 83.39 52.9763 83.0223 52.9763 82.6398V79.3645C52.9763 78.982 53.1181 78.6094 53.3743 78.3397C53.6259 78.0651 53.9735 77.9131 54.3303 77.9131Z" fill="white"/>
</mask>
<g mask="url(#mask19_94_47)">
<path d="M52.9763 77.9131H64.0049V84.0863H52.9763V77.9131Z" fill="#FB811B"/>
</g>
</g>
</g>
<mask id="mask20_94_47" style="mask-type:luminance" maskUnits="userSpaceOnUse" x="64" y="77" width="12" height="8">
<path d="M64.6819 77.9131H75.7288V84.0863H64.6819V77.9131Z" fill="white"/>
</mask>
<g mask="url(#mask20_94_47)">
<mask id="mask21_94_47" style="mask-type:luminance" maskUnits="userSpaceOnUse" x="64" y="77" width="12" height="8">
<path d="M66.0359 77.9131H74.3565C74.7133 77.9131 75.0609 78.0651 75.3125 78.3397C75.5687 78.6094 75.7105 78.982 75.7105 79.3645V82.6398C75.7105 83.0223 75.5687 83.39 75.3125 83.6646C75.0609 83.9343 74.7133 84.0863 74.3565 84.0863H66.0359C65.6745 84.0863 65.3314 83.9343 65.0799 83.6646C64.8237 83.39 64.6819 83.0223 64.6819 82.6398V79.3645C64.6819 78.982 64.8237 78.6094 65.0799 78.3397C65.3314 78.0651 65.6745 77.9131 66.0359 77.9131Z" fill="white"/>
</mask>
<g mask="url(#mask21_94_47)">
<mask id="mask22_94_47" style="mask-type:luminance" maskUnits="userSpaceOnUse" x="64" y="77" width="12" height="8">
<path d="M66.0359 77.9131H74.3565C74.7133 77.9131 75.0609 78.0651 75.3125 78.3397C75.5687 78.6094 75.7105 78.982 75.7105 79.3645V82.6398C75.7105 83.0223 75.5687 83.39 75.3125 83.6646C75.0609 83.9343 74.7133 84.0863 74.3565 84.0863H66.0359C65.6745 84.0863 65.3314 83.9343 65.0799 83.6646C64.8237 83.39 64.6819 83.0223 64.6819 82.6398V79.3645C64.6819 78.982 64.8237 78.6094 65.0799 78.3397C65.3314 78.0651 65.6745 77.9131 66.0359 77.9131Z" fill="white"/>
</mask>
<g mask="url(#mask22_94_47)">
<path d="M64.6819 77.9131H75.7059V84.0863H64.6819V77.9131Z" fill="black"/>
</g>
</g>
</g>
<mask id="mask23_94_47" style="mask-type:luminance" maskUnits="userSpaceOnUse" x="76" y="77" width="12" height="8">
<path d="M76.3875 77.9131H87.4343V84.0863H76.3875V77.9131Z" fill="white"/>
</mask>
<g mask="url(#mask23_94_47)">
<mask id="mask24_94_47" style="mask-type:luminance" maskUnits="userSpaceOnUse" x="76" y="77" width="12" height="8">
<path d="M77.7415 77.9131H86.0621C86.4189 77.9131 86.7619 78.0651 87.0181 78.3397C87.2697 78.6094 87.416 78.982 87.416 79.3645V82.6398C87.416 83.0223 87.2697 83.39 87.0181 83.6646C86.7619 83.9343 86.4189 84.0863 86.0621 84.0863H77.7415C77.3801 84.0863 77.037 83.9343 76.7809 83.6646C76.5293 83.39 76.3875 83.0223 76.3875 82.6398V79.3645C76.3875 78.982 76.5293 78.6094 76.7809 78.3397C77.037 78.0651 77.3801 77.9131 77.7415 77.9131Z" fill="white"/>
</mask>
<g mask="url(#mask24_94_47)">
<mask id="mask25_94_47" style="mask-type:luminance" maskUnits="userSpaceOnUse" x="76" y="77" width="12" height="8">
<path d="M77.7415 77.9131H86.0621C86.4189 77.9131 86.7619 78.0651 87.0181 78.3397C87.2697 78.6094 87.416 78.982 87.416 79.3645V82.6398C87.416 83.0223 87.2697 83.39 87.0181 83.6646C86.7619 83.9343 86.4189 84.0863 86.0621 84.0863H77.7415C77.3801 84.0863 77.037 83.9343 76.7809 83.6646C76.5293 83.39 76.3875 83.0223 76.3875 82.6398V79.3645C76.3875 78.982 76.5293 78.6094 76.7809 78.3397C77.037 78.0651 77.3801 77.9131 77.7415 77.9131Z" fill="white"/>
</mask>
<g mask="url(#mask25_94_47)">
<path d="M76.3875 77.9131H87.4115V84.0863H76.3875V77.9131Z" fill="#FB811B"/>
</g>
</g>
</g>
<mask id="mask26_94_47" style="mask-type:luminance" maskUnits="userSpaceOnUse" x="64" y="70" width="6" height="7">
<path d="M64.6819 70.6709H69.6358V76.849H64.6819V70.6709Z" fill="white"/>
</mask>
<g mask="url(#mask26_94_47)">
<mask id="mask27_94_47" style="mask-type:luminance" maskUnits="userSpaceOnUse" x="64" y="70" width="6" height="7">
<path d="M66.0359 70.6709H68.2819C68.6432 70.6709 68.9863 70.8278 69.2379 71.0975C69.494 71.3672 69.6358 71.7398 69.6358 72.1223V75.3977C69.6358 75.7801 69.494 76.1528 69.2379 76.4224C68.9863 76.697 68.6432 76.849 68.2819 76.849H66.0359C65.6745 76.849 65.3314 76.697 65.0799 76.4224C64.8237 76.1528 64.6819 75.7801 64.6819 75.3977V72.1223C64.6819 71.7398 64.8237 71.3672 65.0799 71.0975C65.3314 70.8278 65.6745 70.6709 66.0359 70.6709Z" fill="white"/>
</mask>
<g mask="url(#mask27_94_47)">
<mask id="mask28_94_47" style="mask-type:luminance" maskUnits="userSpaceOnUse" x="64" y="70" width="6" height="7">
<path d="M66.0359 70.6709H68.2819C68.6432 70.6709 68.9863 70.8278 69.2379 71.0975C69.494 71.3672 69.6358 71.7398 69.6358 72.1223V75.3977C69.6358 75.7801 69.494 76.1528 69.2379 76.4224C68.9863 76.697 68.6432 76.849 68.2819 76.849H66.0359C65.6745 76.849 65.3314 76.697 65.0799 76.4224C64.8237 76.1528 64.6819 75.7801 64.6819 75.3977V72.1223C64.6819 71.7398 64.8237 71.3672 65.0799 71.0975C65.3314 70.8278 65.6745 70.6709 66.0359 70.6709Z" fill="white"/>
</mask>
<g mask="url(#mask28_94_47)">
<path d="M64.6819 70.6709H69.6358V76.8539H64.6819V70.6709Z" fill="black"/>
</g>
</g>
</g>
<mask id="mask29_94_47" style="mask-type:luminance" maskUnits="userSpaceOnUse" x="52" y="70" width="13" height="7">
<path d="M52.9763 70.6709H64.0278V76.849H52.9763V70.6709Z" fill="white"/>
</mask>
<g mask="url(#mask29_94_47)">
<mask id="mask30_94_47" style="mask-type:luminance" maskUnits="userSpaceOnUse" x="52" y="70" width="13" height="7">
<path d="M54.3303 70.6709H62.6509C63.0123 70.6709 63.3554 70.8278 63.6069 71.0975C63.8631 71.3672 64.0049 71.7398 64.0049 72.1223V75.3977C64.0049 75.7801 63.8631 76.1528 63.6069 76.4224C63.3554 76.697 63.0123 76.849 62.6509 76.849H54.3303C53.9735 76.849 53.6259 76.697 53.3743 76.4224C53.1181 76.1528 52.9763 75.7801 52.9763 75.3977V72.1223C52.9763 71.7398 53.1181 71.3672 53.3743 71.0975C53.6259 70.8278 53.9735 70.6709 54.3303 70.6709Z" fill="white"/>
</mask>
<g mask="url(#mask30_94_47)">
<mask id="mask31_94_47" style="mask-type:luminance" maskUnits="userSpaceOnUse" x="52" y="70" width="13" height="7">
<path d="M54.3303 70.6709H62.6509C63.0123 70.6709 63.3554 70.8278 63.6069 71.0975C63.8631 71.3672 64.0049 71.7398 64.0049 72.1223V75.3977C64.0049 75.7801 63.8631 76.1528 63.6069 76.4224C63.3554 76.697 63.0123 76.849 62.6509 76.849H54.3303C53.9735 76.849 53.6259 76.697 53.3743 76.4224C53.1181 76.1528 52.9763 75.7801 52.9763 75.3977V72.1223C52.9763 71.7398 53.1181 71.3672 53.3743 71.0975C53.6259 70.8278 53.9735 70.6709 54.3303 70.6709Z" fill="white"/>
</mask>
<g mask="url(#mask31_94_47)">
<path d="M52.9763 70.6709H64.0049V76.849H52.9763V70.6709Z" fill="#FB811B"/>
</g>
</g>
</g>
<mask id="mask32_94_47" style="mask-type:luminance" maskUnits="userSpaceOnUse" x="70" y="70" width="12" height="7">
<path d="M70.5461 70.6709H81.5976V76.849H70.5461V70.6709Z" fill="white"/>
</mask>
<g mask="url(#mask32_94_47)">
<mask id="mask33_94_47" style="mask-type:luminance" maskUnits="userSpaceOnUse" x="70" y="70" width="12" height="7">
<path d="M71.9001 70.6709H80.2207C80.5821 70.6709 80.9251 70.8278 81.1767 71.0975C81.4329 71.3672 81.5747 71.7398 81.5747 72.1223V75.3977C81.5747 75.7801 81.4329 76.1528 81.1767 76.4224C80.9251 76.697 80.5821 76.849 80.2207 76.849H71.9001C71.5433 76.849 71.1957 76.697 70.9441 76.4224C70.6879 76.1528 70.5461 75.7801 70.5461 75.3977V72.1223C70.5461 71.7398 70.6879 71.3672 70.9441 71.0975C71.1957 70.8278 71.5433 70.6709 71.9001 70.6709Z" fill="white"/>
</mask>
<g mask="url(#mask33_94_47)">
<mask id="mask34_94_47" style="mask-type:luminance" maskUnits="userSpaceOnUse" x="70" y="70" width="12" height="7">
<path d="M71.9001 70.6709H80.2207C80.5821 70.6709 80.9251 70.8278 81.1767 71.0975C81.4329 71.3672 81.5747 71.7398 81.5747 72.1223V75.3977C81.5747 75.7801 81.4329 76.1528 81.1767 76.4224C80.9251 76.697 80.5821 76.849 80.2207 76.849H71.9001C71.5433 76.849 71.1957 76.697 70.9441 76.4224C70.6879 76.1528 70.5461 75.7801 70.5461 75.3977V72.1223C70.5461 71.7398 70.6879 71.3672 70.9441 71.0975C71.1957 70.8278 71.5433 70.6709 71.9001 70.6709Z" fill="white"/>
</mask>
<g mask="url(#mask34_94_47)">
<path d="M70.5461 70.6709H81.5747V76.849H70.5461V70.6709Z" fill="#FB811B"/>
</g>
</g>
</g>
<mask id="mask35_94_47" style="mask-type:luminance" maskUnits="userSpaceOnUse" x="64" y="63" width="12" height="7">
<path d="M64.6819 63.4336H75.7288V69.6068H64.6819V63.4336Z" fill="white"/>
</mask>
<g mask="url(#mask35_94_47)">
<mask id="mask36_94_47" style="mask-type:luminance" maskUnits="userSpaceOnUse" x="64" y="63" width="12" height="7">
<path d="M66.0359 63.4336H74.3565C74.7133 63.4336 75.0609 63.5856 75.3125 63.8553C75.5687 64.1299 75.7105 64.4976 75.7105 64.885V68.1554C75.7105 68.5428 75.5687 68.9106 75.3125 69.1802C75.0609 69.4548 74.7133 69.6068 74.3565 69.6068H66.0359C65.6745 69.6068 65.3314 69.4548 65.0799 69.1802C64.8237 68.9106 64.6819 68.5428 64.6819 68.1554V64.885C64.6819 64.4976 64.8237 64.1299 65.0799 63.8553C65.3314 63.5856 65.6745 63.4336 66.0359 63.4336Z" fill="white"/>
</mask>
<g mask="url(#mask36_94_47)">
<mask id="mask37_94_47" style="mask-type:luminance" maskUnits="userSpaceOnUse" x="64" y="63" width="12" height="7">
<path d="M66.0359 63.4336H74.3565C74.7133 63.4336 75.0609 63.5856 75.3125 63.8553C75.5687 64.1299 75.7105 64.4976 75.7105 64.885V68.1554C75.7105 68.5428 75.5687 68.9106 75.3125 69.1802C75.0609 69.4548 74.7133 69.6068 74.3565 69.6068H66.0359C65.6745 69.6068 65.3314 69.4548 65.0799 69.1802C64.8237 68.9106 64.6819 68.5428 64.6819 68.1554V64.885C64.6819 64.4976 64.8237 64.1299 65.0799 63.8553C65.3314 63.5856 65.6745 63.4336 66.0359 63.4336Z" fill="white"/>
</mask>
<g mask="url(#mask37_94_47)">
<path d="M64.6819 63.4336H75.7059V69.6068H64.6819V63.4336Z" fill="#FB811B"/>
</g>
</g>
</g>
<mask id="mask38_94_47" style="mask-type:luminance" maskUnits="userSpaceOnUse" x="76" y="63" width="12" height="7">
<path d="M76.3875 63.4336H87.4343V69.6068H76.3875V63.4336Z" fill="white"/>
</mask>
<g mask="url(#mask38_94_47)">
<mask id="mask39_94_47" style="mask-type:luminance" maskUnits="userSpaceOnUse" x="76" y="63" width="12" height="7">
<path d="M77.7415 63.4336H86.0621C86.4189 63.4336 86.7619 63.5856 87.0181 63.8553C87.2697 64.1299 87.416 64.4976 87.416 64.885V68.1554C87.416 68.5428 87.2697 68.9106 87.0181 69.1802C86.7619 69.4548 86.4189 69.6068 86.0621 69.6068H77.7415C77.3801 69.6068 77.037 69.4548 76.7809 69.1802C76.5293 68.9106 76.3875 68.5428 76.3875 68.1554V64.885C76.3875 64.4976 76.5293 64.1299 76.7809 63.8553C77.037 63.5856 77.3801 63.4336 77.7415 63.4336Z" fill="white"/>
</mask>
<g mask="url(#mask39_94_47)">
<mask id="mask40_94_47" style="mask-type:luminance" maskUnits="userSpaceOnUse" x="76" y="63" width="12" height="7">
<path d="M77.7415 63.4336H86.0621C86.4189 63.4336 86.7619 63.5856 87.0181 63.8553C87.2697 64.1299 87.416 64.4976 87.416 64.885V68.1554C87.416 68.5428 87.2697 68.9106 87.0181 69.1802C86.7619 69.4548 86.4189 69.6068 86.0621 69.6068H77.7415C77.3801 69.6068 77.037 69.4548 76.7809 69.1802C76.5293 68.9106 76.3875 68.5428 76.3875 68.1554V64.885C76.3875 64.4976 76.5293 64.1299 76.7809 63.8553C77.037 63.5856 77.3801 63.4336 77.7415 63.4336Z" fill="white"/>
</mask>
<g mask="url(#mask40_94_47)">
<path d="M76.3875 63.4336H87.4115V69.6068H76.3875V63.4336Z" fill="black"/>
</g>
</g>
</g>
<mask id="mask41_94_47" style="mask-type:luminance" maskUnits="userSpaceOnUse" x="82" y="70" width="6" height="7">
<path d="M82.4621 70.666H87.4115V76.8441H82.4621V70.666Z" fill="white"/>
</mask>
<g mask="url(#mask41_94_47)">
<mask id="mask42_94_47" style="mask-type:luminance" maskUnits="userSpaceOnUse" x="82" y="70" width="6" height="7">
<path d="M86.0621 76.8441H83.8115C83.4547 76.8441 83.1116 76.6921 82.8555 76.4224C82.6039 76.1479 82.4621 75.7801 82.4621 75.3977V72.1223C82.4621 71.7398 82.6039 71.3672 82.8555 71.0975C83.1116 70.8229 83.4547 70.6709 83.8115 70.6709H86.0621C86.4188 70.6709 86.7619 70.8229 87.0181 71.0975C87.2697 71.3672 87.4115 71.7398 87.4115 72.1223V75.3977C87.4115 75.7801 87.2697 76.1479 87.0181 76.4224C86.7619 76.6921 86.4188 76.8441 86.0621 76.8441Z" fill="white"/>
</mask>
<g mask="url(#mask42_94_47)">
<mask id="mask43_94_47" style="mask-type:luminance" maskUnits="userSpaceOnUse" x="82" y="70" width="6" height="7">
<path d="M86.0621 76.8441H83.8115C83.4547 76.8441 83.1116 76.6921 82.8555 76.4224C82.6039 76.1479 82.4621 75.7801 82.4621 75.3977V72.1223C82.4621 71.7398 82.6039 71.3672 82.8555 71.0975C83.1116 70.8229 83.4547 70.6709 83.8115 70.6709H86.0621C86.4188 70.6709 86.7619 70.8229 87.0181 71.0975C87.2697 71.3672 87.4115 71.7398 87.4115 72.1223V75.3977C87.4115 75.7801 87.2697 76.1479 87.0181 76.4224C86.7619 76.6921 86.4188 76.8441 86.0621 76.8441Z" fill="white"/>
</mask>
<g mask="url(#mask43_94_47)">
<path d="M82.4621 70.666H87.4115V76.8441H82.4621V70.666Z" fill="black"/>
</g>
</g>
</g>
<mask id="mask44_94_47" style="mask-type:luminance" maskUnits="userSpaceOnUse" x="52" y="63" width="13" height="7">
<path d="M52.9763 63.4336H64.0278V69.6068H52.9763V63.4336Z" fill="white"/>
</mask>
<g mask="url(#mask44_94_47)">
<mask id="mask45_94_47" style="mask-type:luminance" maskUnits="userSpaceOnUse" x="52" y="63" width="13" height="7">
<path d="M54.3303 63.4336H62.6509C63.0123 63.4336 63.3554 63.5856 63.6069 63.8553C63.8631 64.1299 64.0049 64.4976 64.0049 64.885V68.1554C64.0049 68.5428 63.8631 68.9106 63.6069 69.1802C63.3554 69.4548 63.0123 69.6068 62.6509 69.6068H54.3303C53.9735 69.6068 53.6259 69.4548 53.3743 69.1802C53.1181 68.9106 52.9763 68.5428 52.9763 68.1554V64.885C52.9763 64.4976 53.1181 64.1299 53.3743 63.8553C53.6259 63.5856 53.9735 63.4336 54.3303 63.4336Z" fill="white"/>
</mask>
<g mask="url(#mask45_94_47)">
<mask id="mask46_94_47" style="mask-type:luminance" maskUnits="userSpaceOnUse" x="52" y="63" width="13" height="7">
<path d="M54.3303 63.4336H62.6509C63.0123 63.4336 63.3554 63.5856 63.6069 63.8553C63.8631 64.1299 64.0049 64.4976 64.0049 64.885V68.1554C64.0049 68.5428 63.8631 68.9106 63.6069 69.1802C63.3554 69.4548 63.0123 69.6068 62.6509 69.6068H54.3303C53.9735 69.6068 53.6259 69.4548 53.3743 69.1802C53.1181 68.9106 52.9763 68.5428 52.9763 68.1554V64.885C52.9763 64.4976 53.1181 64.1299 53.3743 63.8553C53.6259 63.5856 53.9735 63.4336 54.3303 63.4336Z" fill="white"/>
</mask>
<g mask="url(#mask46_94_47)">
<path d="M52.9763 63.4336H64.0049V69.6068H52.9763V63.4336Z" fill="black"/>
</g>
</g>
</g>
<mask id="mask47_94_47" style="mask-type:luminance" maskUnits="userSpaceOnUse" x="74" y="20" width="10" height="11">
<path d="M74.4983 20.1377H83.5188V30.9102H74.4983V20.1377Z" fill="white"/>
</mask>
<g mask="url(#mask47_94_47)">
<mask id="mask48_94_47" style="mask-type:luminance" maskUnits="userSpaceOnUse" x="73" y="19" width="11" height="12">
<path d="M73.9585 20.8047L82.4072 19.7554L83.4959 29.8365L75.0472 30.8858L73.9585 20.8047Z" fill="white"/>
</mask>
<g mask="url(#mask48_94_47)">
<mask id="mask49_94_47" style="mask-type:luminance" maskUnits="userSpaceOnUse" x="73" y="19" width="11" height="12">
<path d="M73.9585 20.8047L82.4072 19.7554L83.4959 29.8365L75.0472 30.8858L73.9585 20.8047Z" fill="white"/>
</mask>
<g mask="url(#mask49_94_47)">
<mask id="mask50_94_47" style="mask-type:luminance" maskUnits="userSpaceOnUse" x="73" y="19" width="11" height="12">
<path d="M73.9585 20.8047L82.4072 19.7554L83.4959 29.8365L75.0472 30.8858L73.9585 20.8047Z" fill="white"/>
</mask>
<g mask="url(#mask50_94_47)">
<path d="M83.011 26.7084L81.1767 26.934L79.4522 25.4532C79.6581 25.2374 79.7953 24.9432 79.8136 24.6294C79.8502 24.0165 79.4888 23.4674 78.9536 23.3104L78.9079 22.9035L79.0543 22.8839C79.2921 22.8544 79.4751 22.6387 79.4843 22.3788L79.5026 20.7706C79.5026 20.6038 79.4431 20.4469 79.3287 20.3342C79.2144 20.2214 79.0634 20.1675 78.9125 20.1871L77.4533 20.3685C77.3023 20.3881 77.1651 20.4764 77.0782 20.6136C76.9913 20.7509 76.9638 20.9226 77.005 21.0795L77.3664 22.6387C77.4258 22.8937 77.65 23.0604 77.8878 23.031L78.0342 23.0113L78.1211 23.8057C78.1486 24.0606 78.3636 24.247 78.6106 24.2176C78.6929 24.2077 78.7798 24.2372 78.8439 24.3058C78.9079 24.3696 78.9399 24.4578 78.9353 24.5559C78.9262 24.6834 78.8439 24.8256 78.6746 24.8501C78.5282 24.8648 78.455 24.8256 78.3864 24.6834C78.3041 24.5265 78.1303 24.4382 77.9519 24.4578C77.8055 24.4774 77.682 24.5706 77.6134 24.7128C77.5493 24.8599 77.5539 25.0315 77.6271 25.1688C77.7323 25.3649 77.8833 25.5169 78.0525 25.6248L76.6848 27.4929L74.8551 27.7185C74.7728 27.7283 74.7133 27.8067 74.727 27.895L75.0335 30.7291C75.0426 30.8174 75.1158 30.8811 75.1936 30.8713L83.3495 29.8563C83.4319 29.8465 83.4867 29.7681 83.4822 29.6798L83.1711 26.8457C83.162 26.7574 83.0888 26.6937 83.011 26.7084ZM78.6883 20.8539C78.7707 20.8441 78.8393 20.9078 78.853 20.9961C78.8622 21.0795 78.8027 21.1579 78.7204 21.1677C78.6426 21.1775 78.5694 21.1187 78.5603 21.0304C78.5511 20.9422 78.606 20.8637 78.6883 20.8539ZM77.8467 21.2805C77.7689 21.2854 77.6957 21.2266 77.6866 21.1383C77.6774 21.05 77.7323 20.9716 77.8146 20.9618C77.8924 20.952 77.9656 21.0157 77.9793 21.104C77.9839 21.1873 77.929 21.2707 77.8467 21.2805ZM78.1623 22.119C78.144 21.9866 78.2309 21.8689 78.3544 21.8542C78.4733 21.8395 78.5831 21.9326 78.5968 22.065C78.6106 22.1925 78.5237 22.3102 78.4047 22.3249C78.2812 22.3445 78.176 22.2464 78.1623 22.119ZM78.7752 25.1492C79.0543 25.0805 79.2144 24.8158 79.2281 24.5755C79.2372 24.3843 79.1732 24.2028 79.0451 24.0754C78.9216 23.943 78.7478 23.8792 78.5694 23.9037C78.4916 23.9135 78.423 23.8498 78.4139 23.7665L78.327 22.977L78.6197 22.9378L78.6746 23.4575C78.6838 23.5262 78.7295 23.585 78.7935 23.5948C79.2372 23.6831 79.5529 24.1146 79.5209 24.6098C79.5026 24.8942 79.3562 25.1639 79.132 25.3257C79.068 25.3747 78.9948 25.414 78.9216 25.4385C78.7935 25.4826 78.6609 25.4924 78.5374 25.4728L78.7752 25.1492ZM77.8833 25.0119C77.8558 24.9629 77.8558 24.904 77.8787 24.8599C77.897 24.8108 77.9382 24.7814 77.9885 24.7765C78.0434 24.7667 78.1074 24.7961 78.1303 24.8403C78.2035 24.9874 78.2995 25.0805 78.4139 25.1296L78.2355 25.3747C78.0937 25.2914 77.9702 25.1688 77.8833 25.0119ZM78.3315 25.7523C78.4779 25.7964 78.6243 25.8111 78.7798 25.7915C78.853 25.7866 78.9308 25.767 79.0085 25.7425C79.0771 25.718 79.1412 25.6836 79.2052 25.6444L80.7651 26.983L77.0965 27.439L78.3315 25.7523ZM76.3234 30.4104L75.3034 30.5379L75.2393 29.9053L76.2548 29.7779L76.3234 30.4104ZM76.2228 29.4641L75.2027 29.5915L75.1341 28.959L76.1542 28.8364L76.2228 29.4641ZM76.1222 28.5177L75.1021 28.6452L75.0335 28.0176L76.0535 27.8901L76.1222 28.5177ZM80.6964 29.8661L77.7826 30.229L77.714 29.6013L80.6278 29.2385L80.6964 29.8661ZM80.5912 28.9198L77.682 29.2826L77.6134 28.655L80.5272 28.2922L80.5912 28.9198ZM80.4906 27.9784L77.5768 28.3363L77.5082 27.7087L80.422 27.3458L80.4906 27.9784ZM83.1711 29.5621L82.1511 29.6847L82.0824 29.0571L83.1025 28.9296L83.1711 29.5621ZM83.0705 28.6158L82.0504 28.7433L81.9818 28.1108L83.0019 27.9833L83.0705 28.6158ZM82.9653 27.6695L81.9498 27.7969L81.8812 27.1644L82.9012 27.0369L82.9653 27.6695Z" fill="black"/>
</g>
</g>
</g>
</g>
<path d="M77.069 13.4497L77.7186 20.378" stroke="black" stroke-width="0.220086"/>
<path d="M78.2218 12.9102L78.885 20.2504" stroke="black" stroke-width="0.220087"/>
<mask id="mask51_94_47" style="mask-type:luminance" maskUnits="userSpaceOnUse" x="73" y="26" width="12" height="8">
<path d="M73.3318 26.5903H84.7767V33.8864H73.3318V26.5903Z" fill="white"/>
</mask>
<g mask="url(#mask51_94_47)">
<mask id="mask52_94_47" style="mask-type:luminance" maskUnits="userSpaceOnUse" x="73" y="26" width="12" height="8">
<path d="M84.827 32.6365L73.8442 33.9407L73.2129 27.8018L84.1912 26.4976L84.827 32.6365Z" fill="white"/>
</mask>
<g mask="url(#mask52_94_47)">
<mask id="mask53_94_47" style="mask-type:luminance" maskUnits="userSpaceOnUse" x="73" y="26" width="12" height="8">
<path d="M83.4822 32.7931L75.2119 33.7786C74.8551 33.8178 74.4983 33.7051 74.2147 33.4648C73.9356 33.2246 73.7573 32.8764 73.7161 32.494L73.3822 29.2382C73.341 28.8557 73.4462 28.4733 73.6703 28.1742C73.8945 27.8751 74.2193 27.6789 74.576 27.6397L82.8463 26.6591C83.2031 26.6149 83.5645 26.7228 83.8435 26.968C84.1226 27.2082 84.301 27.5564 84.3421 27.9388L84.676 31.1946C84.7172 31.5771 84.612 31.9595 84.3879 32.2586C84.1637 32.5577 83.839 32.7538 83.4822 32.7931Z" fill="white"/>
</mask>
<g mask="url(#mask53_94_47)">
<mask id="mask54_94_47" style="mask-type:luminance" maskUnits="userSpaceOnUse" x="73" y="26" width="12" height="8">
<path d="M84.827 32.6365L73.8442 33.9407L73.2129 27.8018L84.1912 26.4976L84.827 32.6365Z" fill="white"/>
</mask>
<g mask="url(#mask54_94_47)">
<mask id="mask55_94_47" style="mask-type:luminance" maskUnits="userSpaceOnUse" x="73" y="26" width="12" height="8">
<path d="M83.4822 32.7931L75.2119 33.7786C74.8551 33.8178 74.4983 33.7051 74.2147 33.4648C73.9356 33.2246 73.7573 32.8764 73.7161 32.494L73.3822 29.2382C73.341 28.8557 73.4462 28.4733 73.6703 28.1742C73.8945 27.8751 74.2193 27.6789 74.576 27.6397L82.8463 26.6591C83.2031 26.6149 83.5645 26.7228 83.8435 26.968C84.1226 27.2082 84.301 27.5564 84.3421 27.9388L84.676 31.1946C84.7172 31.5771 84.612 31.9595 84.3879 32.2586C84.1637 32.5577 83.839 32.7538 83.4822 32.7931Z" fill="white"/>
</mask>
<g mask="url(#mask55_94_47)">
<path d="M84.827 32.6365L73.867 33.9358L73.2312 27.7969L84.1912 26.4976L84.827 32.6365Z" fill="black"/>
</g>
</g>
</g>
</g>
</g>
<mask id="mask56_94_47" style="mask-type:luminance" maskUnits="userSpaceOnUse" x="64" y="41" width="12" height="7">
<path d="M64.6728 41.707H75.7105V47.8852H64.6728V41.707Z" fill="white"/>
</mask>
<g mask="url(#mask56_94_47)">
<mask id="mask57_94_47" style="mask-type:luminance" maskUnits="userSpaceOnUse" x="64" y="41" width="12" height="7">
<path d="M74.3567 47.8852H66.0361C65.6747 47.8852 65.3316 47.7282 65.08 47.4586C64.8239 47.1889 64.6821 46.8162 64.6821 46.4338V43.1584C64.6821 42.7759 64.8239 42.4033 65.08 42.1336C65.3316 41.859 65.6747 41.707 66.0361 41.707H74.3567C74.7135 41.707 75.0565 41.859 75.3127 42.1336C75.5643 42.4033 75.7107 42.7759 75.7107 43.1584V46.4338C75.7107 46.8162 75.5643 47.1889 75.3127 47.4586C75.0565 47.7282 74.7135 47.8852 74.3567 47.8852Z" fill="white"/>
</mask>
<g mask="url(#mask57_94_47)">
<mask id="mask58_94_47" style="mask-type:luminance" maskUnits="userSpaceOnUse" x="64" y="41" width="12" height="7">
<path d="M74.3567 47.8852H66.0361C65.6747 47.8852 65.3316 47.7282 65.08 47.4586C64.8239 47.1889 64.6821 46.8162 64.6821 46.4338V43.1584C64.6821 42.7759 64.8239 42.4033 65.08 42.1336C65.3316 41.859 65.6747 41.707 66.0361 41.707H74.3567C74.7135 41.707 75.0565 41.859 75.3127 42.1336C75.5643 42.4033 75.7107 42.7759 75.7107 43.1584V46.4338C75.7107 46.8162 75.5643 47.1889 75.3127 47.4586C75.0565 47.7282 74.7135 47.8852 74.3567 47.8852Z" fill="white"/>
</mask>
<g mask="url(#mask58_94_47)">
<path d="M64.6821 41.707H75.7107V47.8852H64.6821V41.707Z" fill="#FB811B"/>
</g>
</g>
</g>
<mask id="mask59_94_47" style="mask-type:luminance" maskUnits="userSpaceOnUse" x="52" y="41" width="13" height="7">
<path d="M52.9535 41.707H64.0049V47.8852H52.9535V41.707Z" fill="white"/>
</mask>
<g mask="url(#mask59_94_47)">
<mask id="mask60_94_47" style="mask-type:luminance" maskUnits="userSpaceOnUse" x="52" y="41" width="13" height="7">
<path d="M62.6509 47.8852H54.3303C53.969 47.8852 53.6259 47.7282 53.3743 47.4586C53.1181 47.1889 52.9763 46.8162 52.9763 46.4338V43.1584C52.9763 42.7759 53.1181 42.4033 53.3743 42.1336C53.6259 41.859 53.969 41.707 54.3303 41.707H62.6509C63.0077 41.707 63.3554 41.859 63.6069 42.1336C63.8631 42.4033 64.0049 42.7759 64.0049 43.1584V46.4338C64.0049 46.8162 63.8631 47.1889 63.6069 47.4586C63.3554 47.7282 63.0077 47.8852 62.6509 47.8852Z" fill="white"/>
</mask>
<g mask="url(#mask60_94_47)">
<mask id="mask61_94_47" style="mask-type:luminance" maskUnits="userSpaceOnUse" x="52" y="41" width="13" height="7">
<path d="M62.6509 47.8852H54.3303C53.969 47.8852 53.6259 47.7282 53.3743 47.4586C53.1181 47.1889 52.9763 46.8162 52.9763 46.4338V43.1584C52.9763 42.7759 53.1181 42.4033 53.3743 42.1336C53.6259 41.859 53.969 41.707 54.3303 41.707H62.6509C63.0077 41.707 63.3554 41.859 63.6069 42.1336C63.8631 42.4033 64.0049 42.7759 64.0049 43.1584V46.4338C64.0049 46.8162 63.8631 47.1889 63.6069 47.4586C63.3554 47.7282 63.0077 47.8852 62.6509 47.8852Z" fill="white"/>
</mask>
<g mask="url(#mask61_94_47)">
<path d="M52.9809 41.707H64.0049V47.8852H52.9809V41.707Z" fill="black"/>
</g>
</g>
</g>
<mask id="mask62_94_47" style="mask-type:luminance" maskUnits="userSpaceOnUse" x="70" y="48" width="6" height="8">
<path d="M70.7565 48.8267H75.7105V55.0097H70.7565V48.8267Z" fill="white"/>
</mask>
<g mask="url(#mask62_94_47)">
<mask id="mask63_94_47" style="mask-type:luminance" maskUnits="userSpaceOnUse" x="70" y="48" width="6" height="8">
<path d="M74.3565 55.0096H72.1105C71.7491 55.0096 71.4061 54.8576 71.1499 54.5831C70.8983 54.3134 70.7565 53.9456 70.7565 53.5583V50.2829C70.7565 49.9004 70.8983 49.5327 71.1499 49.2581C71.4061 48.9884 71.7491 48.8364 72.1105 48.8364H74.3565C74.7133 48.8364 75.0609 48.9884 75.3125 49.2581C75.5687 49.5327 75.7105 49.9004 75.7105 50.2829V53.5583C75.7105 53.9456 75.5687 54.3134 75.3125 54.5831C75.0609 54.8576 74.7133 55.0096 74.3565 55.0096Z" fill="white"/>
</mask>
<g mask="url(#mask63_94_47)">
<mask id="mask64_94_47" style="mask-type:luminance" maskUnits="userSpaceOnUse" x="70" y="48" width="6" height="8">
<path d="M74.3565 55.0096H72.1105C71.7491 55.0096 71.4061 54.8576 71.1499 54.5831C70.8983 54.3134 70.7565 53.9456 70.7565 53.5583V50.2829C70.7565 49.9004 70.8983 49.5327 71.1499 49.2581C71.4061 48.9884 71.7491 48.8364 72.1105 48.8364H74.3565C74.7133 48.8364 75.0609 48.9884 75.3125 49.2581C75.5687 49.5327 75.7105 49.9004 75.7105 50.2829V53.5583C75.7105 53.9456 75.5687 54.3134 75.3125 54.5831C75.0609 54.8576 74.7133 55.0096 74.3565 55.0096Z" fill="white"/>
</mask>
<g mask="url(#mask64_94_47)">
<path d="M70.7565 48.8267H75.7105V55.0097H70.7565V48.8267Z" fill="black"/>
</g>
</g>
</g>
<mask id="mask65_94_47" style="mask-type:luminance" maskUnits="userSpaceOnUse" x="76" y="48" width="12" height="8">
<path d="M76.3646 48.8364H87.4115V55.0096H76.3646V48.8364Z" fill="white"/>
</mask>
<g mask="url(#mask65_94_47)">
<mask id="mask66_94_47" style="mask-type:luminance" maskUnits="userSpaceOnUse" x="76" y="48" width="12" height="8">
<path d="M86.0621 55.0096H77.7369C77.3801 55.0096 77.037 54.8576 76.7809 54.5831C76.5293 54.3134 76.3875 53.9456 76.3875 53.5583V50.2829C76.3875 49.9004 76.5293 49.5327 76.7809 49.2581C77.037 48.9884 77.3801 48.8364 77.7369 48.8364H86.0621C86.4189 48.8364 86.7619 48.9884 87.0181 49.2581C87.2697 49.5327 87.4115 49.9004 87.4115 50.2829V53.5583C87.4115 53.9456 87.2697 54.3134 87.0181 54.5831C86.7619 54.8576 86.4189 55.0096 86.0621 55.0096Z" fill="white"/>
</mask>
<g mask="url(#mask66_94_47)">
<mask id="mask67_94_47" style="mask-type:luminance" maskUnits="userSpaceOnUse" x="76" y="48" width="12" height="8">
<path d="M86.0621 55.0096H77.7369C77.3801 55.0096 77.037 54.8576 76.7809 54.5831C76.5293 54.3134 76.3875 53.9456 76.3875 53.5583V50.2829C76.3875 49.9004 76.5293 49.5327 76.7809 49.2581C77.037 48.9884 77.3801 48.8364 77.7369 48.8364H86.0621C86.4189 48.8364 86.7619 48.9884 87.0181 49.2581C87.2697 49.5327 87.4115 49.9004 87.4115 50.2829V53.5583C87.4115 53.9456 87.2697 54.3134 87.0181 54.5831C86.7619 54.8576 86.4189 55.0096 86.0621 55.0096Z" fill="white"/>
</mask>
<g mask="url(#mask67_94_47)">
<path d="M76.3875 48.8364H87.4115V55.0096H76.3875V48.8364Z" fill="#FB811B"/>
</g>
</g>
</g>
<mask id="mask68_94_47" style="mask-type:luminance" maskUnits="userSpaceOnUse" x="58" y="48" width="12" height="8">
<path d="M58.804 48.9492H69.8508V55.1224H58.804V48.9492Z" fill="white"/>
</mask>
<g mask="url(#mask68_94_47)">
<mask id="mask69_94_47" style="mask-type:luminance" maskUnits="userSpaceOnUse" x="58" y="48" width="12" height="8">
<path d="M68.5014 55.1224H60.1762C59.8194 55.1224 59.4764 54.9704 59.2202 54.7008C58.9686 54.4262 58.8268 54.0584 58.8268 53.6711V50.4006C58.8268 50.0132 58.9686 49.6455 59.2202 49.3758C59.4764 49.1012 59.8194 48.9492 60.1762 48.9492H68.5014C68.8582 48.9492 69.2013 49.1012 69.4574 49.3758C69.709 49.6455 69.8508 50.0132 69.8508 50.4006V53.6711C69.8508 54.0584 69.709 54.4262 69.4574 54.7008C69.2013 54.9704 68.8582 55.1224 68.5014 55.1224Z" fill="white"/>
</mask>
<g mask="url(#mask69_94_47)">
<mask id="mask70_94_47" style="mask-type:luminance" maskUnits="userSpaceOnUse" x="58" y="48" width="12" height="8">
<path d="M68.5014 55.1224H60.1762C59.8194 55.1224 59.4764 54.9704 59.2202 54.7008C58.9686 54.4262 58.8268 54.0584 58.8268 53.6711V50.4006C58.8268 50.0132 58.9686 49.6455 59.2202 49.3758C59.4764 49.1012 59.8194 48.9492 60.1762 48.9492H68.5014C68.8582 48.9492 69.2013 49.1012 69.4574 49.3758C69.709 49.6455 69.8508 50.0132 69.8508 50.4006V53.6711C69.8508 54.0584 69.709 54.4262 69.4574 54.7008C69.2013 54.9704 68.8582 55.1224 68.5014 55.1224Z" fill="white"/>
</mask>
<g mask="url(#mask70_94_47)">
<path d="M58.8268 48.9492H69.8508V55.1224H58.8268V48.9492Z" fill="#FB811B"/>
</g>
</g>
</g>
<mask id="mask71_94_47" style="mask-type:luminance" maskUnits="userSpaceOnUse" x="64" y="56" width="12" height="7">
<path d="M64.6728 56.1914H75.7105V62.3646H64.6728V56.1914Z" fill="white"/>
</mask>
<g mask="url(#mask71_94_47)">
<mask id="mask72_94_47" style="mask-type:luminance" maskUnits="userSpaceOnUse" x="64" y="56" width="12" height="7">
<path d="M74.3567 62.3646H66.0361C65.6747 62.3646 65.3316 62.2126 65.08 61.938C64.8239 61.6684 64.6821 61.3006 64.6821 60.9133V57.6428C64.6821 57.2554 64.8239 56.8877 65.08 56.6131C65.3316 56.3434 65.6747 56.1914 66.0361 56.1914H74.3567C74.7135 56.1914 75.0565 56.3434 75.3127 56.6131C75.5643 56.8877 75.7107 57.2554 75.7107 57.6428V60.9133C75.7107 61.3006 75.5643 61.6684 75.3127 61.938C75.0565 62.2126 74.7135 62.3646 74.3567 62.3646Z" fill="white"/>
</mask>
<g mask="url(#mask72_94_47)">
<mask id="mask73_94_47" style="mask-type:luminance" maskUnits="userSpaceOnUse" x="64" y="56" width="12" height="7">
<path d="M74.3567 62.3646H66.0361C65.6747 62.3646 65.3316 62.2126 65.08 61.938C64.8239 61.6684 64.6821 61.3006 64.6821 60.9133V57.6428C64.6821 57.2554 64.8239 56.8877 65.08 56.6131C65.3316 56.3434 65.6747 56.1914 66.0361 56.1914H74.3567C74.7135 56.1914 75.0565 56.3434 75.3127 56.6131C75.5643 56.8877 75.7107 57.2554 75.7107 57.6428V60.9133C75.7107 61.3006 75.5643 61.6684 75.3127 61.938C75.0565 62.2126 74.7135 62.3646 74.3567 62.3646Z" fill="white"/>
</mask>
<g mask="url(#mask73_94_47)">
<path d="M64.6821 56.1914H75.7107V62.3646H64.6821V56.1914Z" fill="black"/>
</g>
</g>
</g>
<mask id="mask74_94_47" style="mask-type:luminance" maskUnits="userSpaceOnUse" x="52" y="56" width="13" height="7">
<path d="M52.9535 56.1914H64.0049V62.3646H52.9535V56.1914Z" fill="white"/>
</mask>
<g mask="url(#mask74_94_47)">
<mask id="mask75_94_47" style="mask-type:luminance" maskUnits="userSpaceOnUse" x="52" y="56" width="13" height="7">
<path d="M62.6509 62.3646H54.3303C53.969 62.3646 53.6259 62.2126 53.3743 61.938C53.1181 61.6684 52.9763 61.3006 52.9763 60.9133V57.6428C52.9763 57.2554 53.1181 56.8877 53.3743 56.6131C53.6259 56.3434 53.969 56.1914 54.3303 56.1914H62.6509C63.0077 56.1914 63.3554 56.3434 63.6069 56.6131C63.8631 56.8877 64.0049 57.2554 64.0049 57.6428V60.9133C64.0049 61.3006 63.8631 61.6684 63.6069 61.938C63.3554 62.2126 63.0077 62.3646 62.6509 62.3646Z" fill="white"/>
</mask>
<g mask="url(#mask75_94_47)">
<mask id="mask76_94_47" style="mask-type:luminance" maskUnits="userSpaceOnUse" x="52" y="56" width="13" height="7">
<path d="M62.6509 62.3646H54.3303C53.969 62.3646 53.6259 62.2126 53.3743 61.938C53.1181 61.6684 52.9763 61.3006 52.9763 60.9133V57.6428C52.9763 57.2554 53.1181 56.8877 53.3743 56.6131C53.6259 56.3434 53.969 56.1914 54.3303 56.1914H62.6509C63.0077 56.1914 63.3554 56.3434 63.6069 56.6131C63.8631 56.8877 64.0049 57.2554 64.0049 57.6428V60.9133C64.0049 61.3006 63.8631 61.6684 63.6069 61.938C63.3554 62.2126 63.0077 62.3646 62.6509 62.3646Z" fill="white"/>
</mask>
<g mask="url(#mask76_94_47)">
<path d="M52.9809 56.1914H64.0049V62.3646H52.9809V56.1914Z" fill="#FB811B"/>
</g>
</g>
</g>
<mask id="mask77_94_47" style="mask-type:luminance" maskUnits="userSpaceOnUse" x="52" y="48" width="6" height="8">
<path d="M52.9763 48.9492H57.9303V55.1322H52.9763V48.9492Z" fill="white"/>
</mask>
<g mask="url(#mask77_94_47)">
<mask id="mask78_94_47" style="mask-type:luminance" maskUnits="userSpaceOnUse" x="52" y="48" width="6" height="8">
<path d="M54.3303 48.9492H56.5763C56.9377 48.9492 57.2807 49.1012 57.5369 49.3758C57.7885 49.6455 57.9303 50.0181 57.9303 50.4006V53.676C57.9303 54.0584 57.7885 54.4311 57.5369 54.7008C57.2807 54.9704 56.9377 55.1273 56.5763 55.1273H54.3303C53.9735 55.1273 53.6259 54.9704 53.3743 54.7008C53.1181 54.4311 52.9763 54.0584 52.9763 53.676V50.4006C52.9763 50.0181 53.1181 49.6455 53.3743 49.3758C53.6259 49.1012 53.9735 48.9492 54.3303 48.9492Z" fill="white"/>
</mask>
<g mask="url(#mask78_94_47)">
<mask id="mask79_94_47" style="mask-type:luminance" maskUnits="userSpaceOnUse" x="52" y="48" width="6" height="8">
<path d="M54.3303 48.9492H56.5763C56.9377 48.9492 57.2807 49.1012 57.5369 49.3758C57.7885 49.6455 57.9303 50.0181 57.9303 50.4006V53.676C57.9303 54.0584 57.7885 54.4311 57.5369 54.7008C57.2807 54.9704 56.9377 55.1273 56.5763 55.1273H54.3303C53.9735 55.1273 53.6259 54.9704 53.3743 54.7008C53.1181 54.4311 52.9763 54.0584 52.9763 53.676V50.4006C52.9763 50.0181 53.1181 49.6455 53.3743 49.3758C53.6259 49.1012 53.9735 48.9492 54.3303 48.9492Z" fill="white"/>
</mask>
<g mask="url(#mask79_94_47)">
<path d="M52.9763 48.9492H57.9303V55.1322H52.9763V48.9492Z" fill="black"/>
</g>
</g>
</g>
<mask id="mask80_94_47" style="mask-type:luminance" maskUnits="userSpaceOnUse" x="76" y="56" width="12" height="7">
<path d="M76.3646 56.1914H87.4115V62.3646H76.3646V56.1914Z" fill="white"/>
</mask>
<g mask="url(#mask80_94_47)">
<mask id="mask81_94_47" style="mask-type:luminance" maskUnits="userSpaceOnUse" x="76" y="56" width="12" height="7">
<path d="M86.0621 62.3646H77.7369C77.3801 62.3646 77.037 62.2126 76.7809 61.938C76.5293 61.6684 76.3875 61.3006 76.3875 60.9133V57.6428C76.3875 57.2554 76.5293 56.8877 76.7809 56.6131C77.037 56.3434 77.3801 56.1914 77.7369 56.1914H86.0621C86.4189 56.1914 86.7619 56.3434 87.0181 56.6131C87.2697 56.8877 87.4115 57.2554 87.4115 57.6428V60.9133C87.4115 61.3006 87.2697 61.6684 87.0181 61.938C86.7619 62.2126 86.4189 62.3646 86.0621 62.3646Z" fill="white"/>
</mask>
<g mask="url(#mask81_94_47)">
<mask id="mask82_94_47" style="mask-type:luminance" maskUnits="userSpaceOnUse" x="76" y="56" width="12" height="7">
<path d="M86.0621 62.3646H77.7369C77.3801 62.3646 77.037 62.2126 76.7809 61.938C76.5293 61.6684 76.3875 61.3006 76.3875 60.9133V57.6428C76.3875 57.2554 76.5293 56.8877 76.7809 56.6131C77.037 56.3434 77.3801 56.1914 77.7369 56.1914H86.0621C86.4189 56.1914 86.7619 56.3434 87.0181 56.6131C87.2697 56.8877 87.4115 57.2554 87.4115 57.6428V60.9133C87.4115 61.3006 87.2697 61.6684 87.0181 61.938C86.7619 62.2126 86.4189 62.3646 86.0621 62.3646Z" fill="white"/>
</mask>
<g mask="url(#mask82_94_47)">
<path d="M76.3875 56.1914H87.4115V62.3646H76.3875V56.1914Z" fill="#FB811B"/>
</g>
</g>
</g>
<path d="M74.2604 13.7192L77.1925 10.4586" stroke="black" stroke-width="0.220086"/>
<mask id="mask83_94_47" style="mask-type:luminance" maskUnits="userSpaceOnUse" x="39" y="0" width="59" height="28">
<path d="M39.8848 0H97.1775V27.6152H39.8848V0Z" fill="white"/>
</mask>
<g mask="url(#mask83_94_47)">
<path d="M51.6635 15.1906L86.0987 8.2672" stroke="black" stroke-width="2.20087"/>
</g>
<mask id="mask84_94_47" style="mask-type:luminance" maskUnits="userSpaceOnUse" x="41" y="0" width="57" height="32">
<path d="M41.0558 0H97.1776V31.3809H41.0558V0Z" fill="white"/>
</mask>
<g mask="url(#mask84_94_47)">
<path d="M52.2033 19.054L86.9175 12.0767" stroke="black" stroke-width="2.20087"/>
</g>
<path d="M86.9449 12.3952L86.0072 7.91856" stroke="black" stroke-width="1.5406" stroke-linecap="round"/>
<path d="M53.5801 18.0342L56.5122 14.7735" stroke="black" stroke-width="0.220086"/>
<path d="M56.6175 17.147L59.545 13.8814" stroke="black" stroke-width="0.220086"/>
<path d="M59.7554 16.583L62.6875 13.3223" stroke="black" stroke-width="0.220086"/>
<path d="M62.5 16.1514L65.4321 12.8907" stroke="black" stroke-width="0.220086"/>
<path d="M65.5327 15.352L68.4648 12.0865" stroke="black" stroke-width="0.220086"/>
<path d="M68.1949 14.9502L71.127 11.6895" stroke="black" stroke-width="0.220086"/>
<path d="M71.2277 14.3374L74.1598 11.0718" stroke="black" stroke-width="0.220086"/>
<path d="M77.2886 13.1064L80.2207 9.84086" stroke="black" stroke-width="0.220086"/>
<path d="M80.3214 12.4888L83.2535 9.2281" stroke="black" stroke-width="0.220086"/>
<path d="M83.3541 11.876L86.2862 8.61039" stroke="black" stroke-width="0.220086"/>
<path d="M64.8878 12.886L65.4824 15.4161" stroke="black" stroke-width="0.220086" stroke-linecap="round"/>
<path d="M67.8153 12.2827L68.4054 14.8128" stroke="black" stroke-width="0.220086" stroke-linecap="round"/>
<path d="M70.7382 11.7093L71.3329 14.2393" stroke="black" stroke-width="0.220086" stroke-linecap="round"/>
<path d="M73.6658 11.4837L74.2604 14.0138" stroke="black" stroke-width="0.220086" stroke-linecap="round"/>
<path d="M76.5796 10.8953L77.1742 13.4254" stroke="black" stroke-width="0.220086" stroke-linecap="round"/>
<path d="M79.498 10.3118L80.0926 12.8419" stroke="black" stroke-width="0.220086" stroke-linecap="round"/>
<path d="M82.517 9.60037L83.1116 12.1305" stroke="black" stroke-width="0.220086" stroke-linecap="round"/>
<path d="M56.1051 15.3621L56.6998 17.8922" stroke="black" stroke-width="0.220086" stroke-linecap="round"/>
<path d="M59.0327 14.5725L59.6273 17.1026" stroke="black" stroke-width="0.220086" stroke-linecap="round"/>
<path d="M61.9602 13.7339L62.5549 16.2689" stroke="black" stroke-width="0.220086" stroke-linecap="round"/>
<path d="M53.1776 15.0921L53.7723 17.6222" stroke="black" stroke-width="0.220086" stroke-linecap="round"/>
<path d="M11.3459 29.3267L10.7238 25.0216" stroke="black" stroke-width="1.5406" stroke-linecap="round"/>
<mask id="mask85_94_47" style="mask-type:luminance" maskUnits="userSpaceOnUse" x="15" y="85" width="106" height="23">
<path d="M15.2934 85.356H120.685V107.332H15.2934V85.356Z" fill="white"/>
</mask>
<g mask="url(#mask85_94_47)">
<mask id="mask86_94_47" style="mask-type:luminance" maskUnits="userSpaceOnUse" x="15" y="85" width="106" height="23">
<path d="M120.685 85.356H15.2934V107.95H120.685V85.356Z" fill="white"/>
</mask>
<g mask="url(#mask86_94_47)">
<mask id="mask87_94_47" style="mask-type:luminance" maskUnits="userSpaceOnUse" x="15" y="90" width="15" height="15">
<path d="M15.8561 90.377H29.3456V104.185H15.8561V90.377Z" fill="white"/>
</mask>
<g mask="url(#mask87_94_47)">
<path d="M25.4006 100.371H19.9115L18.8685 103.078H16.0691L21.3387 90.4077H24.0283L29.3162 103.078H26.4435L25.4006 100.371ZM24.5407 98.1353L22.6743 93.2908L20.7897 98.1353H24.5407Z" fill="black"/>
</g>
<path d="M39.2272 96.4878C39.8951 96.7231 40.4211 97.1105 40.8008 97.6449C41.1896 98.1843 41.3863 98.8413 41.3863 99.6259C41.3863 100.739 40.9837 101.597 40.1787 102.195C39.3736 102.784 38.2026 103.078 36.6656 103.078H30.5544V90.4077H36.318C37.7543 90.4077 38.8613 90.7019 39.6298 91.2903C40.4074 91.8787 40.8008 92.6828 40.8008 93.7027C40.8008 94.3205 40.659 94.8697 40.3799 95.3502C40.1101 95.8356 39.7258 96.2132 39.2272 96.4878ZM33.2624 92.624V95.6052H35.9886C36.6565 95.6052 37.1642 95.4826 37.5073 95.2325C37.8595 94.9727 38.0379 94.5951 38.0379 94.095C38.0379 93.5997 37.8595 93.232 37.5073 92.9966C37.1642 92.7515 36.6565 92.624 35.9886 92.624H33.2624ZM36.4644 100.861C37.1825 100.861 37.7269 100.739 38.0928 100.489C38.4587 100.244 38.6417 99.8514 38.6417 99.3121C38.6417 98.2677 37.9144 97.743 36.4644 97.743H33.2624V100.861H36.4644Z" fill="black"/>
<path d="M51.2438 100.371H45.7547L44.7118 103.078H41.9123L47.1819 90.4077H49.8715L55.1594 103.078H52.2868L51.2438 100.371ZM50.3839 98.1353L48.5176 93.2908L46.633 98.1353H50.3839Z" fill="black"/>
<path d="M63.8445 103.078L60.9902 98.6844L58.1724 103.078H55.0436L59.4166 96.6251L55.2632 90.4077H58.3737L61.0817 94.5069L63.7531 90.4077H66.7172L62.582 96.527L66.9916 103.078H63.8445Z" fill="black"/>
<path d="M76.2262 100.371H70.737L69.6941 103.078H66.8947L72.1642 90.4077H74.8539L80.1418 103.078H77.2691L76.2262 100.371ZM75.3662 98.1353L73.4999 93.2908L71.6153 98.1353H75.3662Z" fill="black"/>
<path d="M81.38 90.4077H84.1062V100.685H90.0345V103.078H81.38V90.4077Z" fill="black"/>
<path d="M102.334 103.078L102.316 95.4679L98.8394 101.744H97.5952L94.137 95.6444V103.078H91.5755V90.4077H93.826L98.2539 98.2726L102.609 90.4077H104.859L104.896 103.078H102.334Z" fill="black"/>
<path d="M115.472 100.371H109.983L108.94 103.078H106.141L111.41 90.4077H114.1L119.388 103.078H116.515L115.472 100.371ZM114.612 98.1353L112.746 93.2908L110.861 98.1353H114.612Z" fill="black"/>
</g>
</g>
<mask id="mask88_94_47" style="mask-type:luminance" maskUnits="userSpaceOnUse" x="2" y="81" width="16" height="27">
<path d="M2.41229 81.5903H17.6355V107.333H2.41229V81.5903Z" fill="white"/>
</mask>
<g mask="url(#mask88_94_47)">
<mask id="mask89_94_47" style="mask-type:luminance" maskUnits="userSpaceOnUse" x="2" y="81" width="16" height="27">
<path d="M17.6355 81.5903H2.41229V107.95H17.6355V81.5903Z" fill="white"/>
</mask>
<g mask="url(#mask89_94_47)">
<mask id="mask90_94_47" style="mask-type:luminance" maskUnits="userSpaceOnUse" x="2" y="85" width="15" height="20">
<path d="M2.48091 85.356H16.4645V104.185H2.48091V85.356Z" fill="white"/>
</mask>
<g mask="url(#mask90_94_47)">
<path d="M16.4028 86.9788L16.2381 90.2346C16.2381 90.2346 16.0414 90.2297 15.6526 90.2149C15.2592 90.2051 14.7286 90.1953 14.0608 90.1953C13.4021 90.1855 12.6565 90.1757 11.8285 90.1757C11.7279 91.9017 11.6913 93.559 11.7187 95.1378C11.7416 96.7069 11.7965 98.0994 11.8834 99.3154C11.9795 100.531 12.0664 101.492 12.1396 102.199C12.2219 102.895 12.2677 103.238 12.2677 103.238C11.4992 103.316 10.7216 103.366 9.94392 103.375C9.16172 103.39 8.37495 103.395 7.5836 103.395C7.51041 101.895 7.47381 100.33 7.47381 98.7074C7.47381 97.0746 7.49669 95.5105 7.547 94.0199C7.59275 92.5293 7.64306 91.2691 7.69338 90.2346C6.85171 90.2493 6.04664 90.2885 5.27816 90.3522C4.50968 90.4062 3.83727 90.4797 3.26548 90.568C3.26548 90.568 3.22889 90.4111 3.1557 90.0973C3.09166 89.7835 3.04592 89.3863 3.00932 88.9009C2.96358 88.4056 2.95443 87.9153 2.99103 87.4299C3.02762 86.9347 3.1374 86.5081 3.32037 86.155C3.45303 86.1158 3.70919 86.0962 4.08885 86.0962C4.57372 86.0962 5.20955 86.1158 5.99175 86.155C6.76938 86.1943 7.62477 86.2531 8.55334 86.3315C9.49107 86.4002 10.4196 86.4688 11.3345 86.5473C12.2585 86.6159 13.1002 86.6846 13.8595 86.763C14.628 86.8317 15.2409 86.8807 15.7075 86.9199C16.1695 86.9592 16.4028 86.9788 16.4028 86.9788Z" fill="black"/>
</g>
</g>
</g>
</svg>
