<svg width="24" height="24" viewBox="0 0 24 24" fill="none" xmlns="http://www.w3.org/2000/svg">
<g clip-path="url(#clip0_127_54)">
<path d="M15.15 8.39994C14.3835 8.39731 13.6241 8.54583 12.9151 8.83701C12.2061 9.12819 11.5615 9.55632 11.0182 10.0969C10.4748 10.6375 10.0434 11.2799 9.74855 11.9873C9.45373 12.6948 9.3013 13.4535 9.29999 14.2199V20.0999C9.29999 20.3386 9.39481 20.5676 9.56359 20.7363C9.73237 20.9051 9.96129 20.9999 10.2 20.9999H12.3C12.5387 20.9999 12.7676 20.9051 12.9364 20.7363C13.1052 20.5676 13.2 20.3386 13.2 20.0999V14.2199C13.1998 13.9473 13.257 13.6778 13.368 13.4288C13.479 13.1798 13.6412 12.957 13.8441 12.7749C14.0469 12.5928 14.2859 12.4555 14.5453 12.3719C14.8048 12.2884 15.079 12.2604 15.35 12.2899C15.836 12.3512 16.2826 12.5886 16.6052 12.9572C16.9278 13.3259 17.1038 13.8001 17.1 14.2899V20.0999C17.1 20.3386 17.1948 20.5676 17.3636 20.7363C17.5324 20.9051 17.7613 20.9999 18 20.9999H20.1C20.3387 20.9999 20.5676 20.9051 20.7364 20.7363C20.9052 20.5676 21 20.3386 21 20.0999V14.2199C20.9987 13.4535 20.8462 12.6948 20.5514 11.9873C20.2566 11.2799 19.8252 10.6375 19.2818 10.0969C18.7385 9.55632 18.0939 9.12819 17.3849 8.83701C16.6759 8.54583 15.9164 8.39731 15.15 8.39994Z" fill="#FB811B"/>
<path d="M6.6 9.2998H3.9C3.40294 9.2998 3 9.70275 3 10.1998V20.0998C3 20.5969 3.40294 20.9998 3.9 20.9998H6.6C7.09706 20.9998 7.5 20.5969 7.5 20.0998V10.1998C7.5 9.70275 7.09706 9.2998 6.6 9.2998Z" fill="#FB811B"/>
<path d="M5.25 7.5C6.49264 7.5 7.5 6.49264 7.5 5.25C7.5 4.00736 6.49264 3 5.25 3C4.00736 3 3 4.00736 3 5.25C3 6.49264 4.00736 7.5 5.25 7.5Z" fill="#FB811B"/>
</g>
<defs>
<clipPath id="clip0_127_54">
<rect width="24" height="24" fill="white"/>
</clipPath>
</defs>
</svg>
