<svg width="107" height="95" viewBox="0 0 107 95" fill="none" xmlns="http://www.w3.org/2000/svg">
<rect width="107" height="94.2144" fill="white"/>
<mask id="mask0_71_1711" style="mask-type:luminance" maskUnits="userSpaceOnUse" x="14" y="2" width="38" height="81">
<path d="M14.3278 2.18468H51.0135V82.1602H14.3278V2.18468Z" fill="white"/>
</mask>
<g mask="url(#mask0_71_1711)">
<path d="M32.4796 71.463L32.4677 22.1411" stroke="black" stroke-width="4.18165" stroke-linecap="round"/>
</g>
<mask id="mask1_71_1711" style="mask-type:luminance" maskUnits="userSpaceOnUse" x="21" y="1" width="39" height="82">
<path d="M21.4611 1.09234H59.1659V82.1602H21.4611V1.09234Z" fill="white"/>
</mask>
<g mask="url(#mask1_71_1711)">
<path d="M40.3334 71.463L40.2578 21.3008" stroke="black" stroke-width="4.18163" stroke-linecap="round"/>
</g>
<path d="M40.2538 71.6678H32.6468" stroke="black" stroke-width="3.52139"/>
<mask id="mask2_71_1711" style="mask-type:luminance" maskUnits="userSpaceOnUse" x="19" y="45" width="35" height="38">
<path d="M19.423 45.8783H53.0516V82.1602H19.423V45.8783Z" fill="white"/>
</mask>
<g mask="url(#mask2_71_1711)">
<path d="M32.181 70.3578L40.5444 59.7843" stroke="black" stroke-width="2.86112"/>
</g>
<path d="M31.8944 38.5776L40.2578 28.0083" stroke="black" stroke-width="2.86112"/>
<path d="M32.181 54.5146L40.5444 43.9454" stroke="black" stroke-width="2.86112"/>
<path d="M32.4637 52.4153L40.827 62.9845" stroke="black" stroke-width="1.98077"/>
<path d="M32.4637 36.299L40.827 46.8682" stroke="black" stroke-width="1.98077"/>
<path d="M32.5274 20.4302L40.8907 30.9994" stroke="black" stroke-width="1.98077"/>
<mask id="mask3_71_1711" style="mask-type:luminance" maskUnits="userSpaceOnUse" x="31" y="1" width="11" height="8">
<path d="M31.783 1.65985H41.1495V8.07735H31.783V1.65985Z" fill="white"/>
</mask>
<g mask="url(#mask3_71_1711)">
<mask id="mask4_71_1711" style="mask-type:luminance" maskUnits="userSpaceOnUse" x="31" y="1" width="11" height="8">
<path d="M37.2049 2.03961L41.0024 7.09595C41.1418 7.27516 41.1656 7.52691 41.0741 7.73599C40.9785 7.94507 40.7835 8.07735 40.5646 8.07735H32.3724C32.1574 8.07735 31.9584 7.94507 31.8628 7.73599C31.7713 7.52691 31.7992 7.27516 31.9345 7.09595L35.732 2.03961C35.9112 1.80066 36.1819 1.65985 36.4685 1.65985C36.7551 1.65985 37.0258 1.80066 37.2049 2.03961Z" fill="white"/>
</mask>
<g mask="url(#mask4_71_1711)">
<mask id="mask5_71_1711" style="mask-type:luminance" maskUnits="userSpaceOnUse" x="31" y="1" width="11" height="8">
<path d="M37.2049 2.03961L41.0024 7.09595C41.1418 7.27516 41.1656 7.52691 41.0741 7.73599C40.9785 7.94507 40.7835 8.07735 40.5646 8.07735H32.3724C32.1574 8.07735 31.9584 7.94507 31.8628 7.73599C31.7713 7.52691 31.7992 7.27516 31.9345 7.09595L35.732 2.03961C35.9112 1.80066 36.1819 1.65985 36.4685 1.65985C36.7551 1.65985 37.0258 1.80066 37.2049 2.03961Z" fill="white"/>
</mask>
<g mask="url(#mask5_71_1711)">
<path d="M31.1938 1.05394H41.7386V8.07735H31.1938V1.05394Z" fill="black"/>
</g>
</g>
</g>
<mask id="mask6_71_1711" style="mask-type:luminance" maskUnits="userSpaceOnUse" x="35" y="4" width="3" height="3">
<path d="M35.0829 4.39923H37.8575V6.49431H35.0829V4.39923Z" fill="white"/>
</mask>
<g mask="url(#mask6_71_1711)">
<mask id="mask7_71_1711" style="mask-type:luminance" maskUnits="userSpaceOnUse" x="35" y="4" width="3" height="3">
<path d="M36.5678 4.45911L37.8337 6.34937C37.8536 6.37497 37.8575 6.41337 37.8416 6.44324C37.8257 6.47311 37.7978 6.49445 37.766 6.49445H35.1706C35.1388 6.49445 35.1109 6.47311 35.095 6.44324C35.079 6.41337 35.083 6.37497 35.1029 6.34937L36.3688 4.45911C36.3927 4.42497 36.4285 4.40364 36.4683 4.40364C36.5081 4.40364 36.5439 4.42497 36.5678 4.45911Z" fill="white"/>
</mask>
<g mask="url(#mask7_71_1711)">
<mask id="mask8_71_1711" style="mask-type:luminance" maskUnits="userSpaceOnUse" x="35" y="4" width="3" height="3">
<path d="M36.5678 4.45911L37.8337 6.34937C37.8536 6.37497 37.8575 6.41337 37.8416 6.44324C37.8257 6.47311 37.7978 6.49445 37.766 6.49445H35.1706C35.1388 6.49445 35.1109 6.47311 35.095 6.44324C35.079 6.41337 35.083 6.37497 35.1029 6.34937L36.3688 4.45911C36.3927 4.42497 36.4285 4.40364 36.4683 4.40364C36.5081 4.40364 36.5439 4.42497 36.5678 4.45911Z" fill="white"/>
</mask>
<g mask="url(#mask8_71_1711)">
<path d="M35.0033 4.31417H37.9291V6.49459H35.0033V4.31417Z" fill="white"/>
</g>
</g>
</g>
<mask id="mask9_71_1711" style="mask-type:luminance" maskUnits="userSpaceOnUse" x="28" y="6" width="19" height="17">
<path d="M28.5109 6.49431H46.806V22.0559H28.5109V6.49431Z" fill="white"/>
</mask>
<g mask="url(#mask9_71_1711)">
<mask id="mask10_71_1711" style="mask-type:luminance" maskUnits="userSpaceOnUse" x="28" y="6" width="19" height="17">
<path d="M31.7073 6.49431H43.5856C45.349 6.49431 46.7781 8.02615 46.7781 9.92068V18.6295C46.7781 20.5241 45.349 22.0559 43.5856 22.0559H31.7073C29.9399 22.0559 28.5109 20.5241 28.5109 18.6295V9.92068C28.5109 8.02615 29.9399 6.49431 31.7073 6.49431Z" fill="white"/>
</mask>
<g mask="url(#mask10_71_1711)">
<mask id="mask11_71_1711" style="mask-type:luminance" maskUnits="userSpaceOnUse" x="28" y="6" width="19" height="17">
<path d="M31.7073 6.49431H43.5856C45.349 6.49431 46.7781 8.02615 46.7781 9.92068V18.6295C46.7781 20.5241 45.349 22.0559 43.5856 22.0559H31.7073C29.9399 22.0559 28.5109 20.5241 28.5109 18.6295V9.92068C28.5109 8.02615 29.9399 6.49431 31.7073 6.49431Z" fill="white"/>
</mask>
<g mask="url(#mask11_71_1711)">
<path d="M28.5109 6.49431H46.7741V22.0559H28.5109V6.49431Z" fill="black"/>
</g>
</g>
</g>
<mask id="mask12_71_1711" style="mask-type:luminance" maskUnits="userSpaceOnUse" x="37" y="11" width="6" height="6">
<path d="M37.1728 11.2904H42.1725V16.2742H37.1728V11.2904Z" fill="white"/>
</mask>
<g mask="url(#mask12_71_1711)">
<mask id="mask13_71_1711" style="mask-type:luminance" maskUnits="userSpaceOnUse" x="37" y="11" width="6" height="6">
<path d="M38.1839 11.2904H41.1495C41.7068 11.2904 42.1606 11.7725 42.1606 12.3699V15.1946C42.1606 15.792 41.7068 16.2742 41.1495 16.2742H38.1839C37.6266 16.2742 37.1728 15.792 37.1728 15.1946V12.3699C37.1728 11.7725 37.6266 11.2904 38.1839 11.2904Z" fill="white"/>
</mask>
<g mask="url(#mask13_71_1711)">
<mask id="mask14_71_1711" style="mask-type:luminance" maskUnits="userSpaceOnUse" x="37" y="11" width="6" height="6">
<path d="M38.1839 11.2904H41.1495C41.7068 11.2904 42.1606 11.7725 42.1606 12.3699V15.1946C42.1606 15.792 41.7068 16.2742 41.1495 16.2742H38.1839C37.6266 16.2742 37.1728 15.792 37.1728 15.1946V12.3699C37.1728 11.7725 37.6266 11.2904 38.1839 11.2904Z" fill="white"/>
</mask>
<g mask="url(#mask14_71_1711)">
<path d="M37.1728 11.2904H42.1526V16.2742H37.1728V11.2904Z" fill="white"/>
</g>
</g>
</g>
<mask id="mask15_71_1711" style="mask-type:luminance" maskUnits="userSpaceOnUse" x="0" y="12" width="42" height="25">
<path d="M0.463181 12.0157H41.8421V36.0472H0.463181V12.0157Z" fill="white"/>
</mask>
<g mask="url(#mask15_71_1711)">
<path d="M31.6118 22.952L10.0526 25.3114" stroke="black" stroke-width="2.20086"/>
</g>
<mask id="mask16_71_1711" style="mask-type:luminance" maskUnits="userSpaceOnUse" x="0" y="8" width="40" height="25">
<path d="M0.463181 8.73873H39.804V32.7702H0.463181V8.73873Z" fill="white"/>
</mask>
<g mask="url(#mask16_71_1711)">
<path d="M30.0992 19.8285L9.48333 22.0645" stroke="black" stroke-width="2.20086"/>
</g>
<path d="M29.2553 20.6947L26.433 23.2635" stroke="black" stroke-width="0.220087"/>
<path d="M26.5046 20.9508L23.6823 23.5195" stroke="black" stroke-width="0.220087"/>
<path d="M23.9013 21.1769L21.079 23.7456" stroke="black" stroke-width="0.220087"/>
<path d="M21.2143 21.4756L18.3881 24.0443" stroke="black" stroke-width="0.220087"/>
<path d="M18.6787 21.6633L15.8524 24.2363" stroke="black" stroke-width="0.220087"/>
<path d="M15.9201 22.0303L13.0978 24.6033" stroke="black" stroke-width="0.220087"/>
<path d="M21.2701 23.7584L20.9397 21.514" stroke="black" stroke-width="0.220086" stroke-linecap="round"/>
<path d="M18.6628 24.0102L18.3363 21.7657" stroke="black" stroke-width="0.220086" stroke-linecap="round"/>
<path d="M16.0594 24.2619L15.733 22.0175" stroke="black" stroke-width="0.220086" stroke-linecap="round"/>
<path d="M13.2928 24.4753L12.9664 22.2308" stroke="black" stroke-width="0.220086" stroke-linecap="round"/>
<path d="M29.3309 22.457L29.0045 20.2126" stroke="black" stroke-width="0.220086" stroke-linecap="round"/>
<path d="M26.7276 22.7087L26.3972 20.4643" stroke="black" stroke-width="0.220086" stroke-linecap="round"/>
<path d="M23.965 23.1226L23.6386 20.8782" stroke="black" stroke-width="0.220086" stroke-linecap="round"/>
<path d="M10.0327 25.6231L9.48734 21.8767" stroke="black" stroke-width="1.5406" stroke-linecap="round"/>
<path d="M12.9266 22.5338L10.1003 25.1025" stroke="black" stroke-width="0.220087"/>
<path d="M10.5741 25.03L10.2476 22.7855" stroke="black" stroke-width="0.220086" stroke-linecap="round"/>
<mask id="mask17_71_1711" style="mask-type:luminance" maskUnits="userSpaceOnUse" x="46" y="67" width="10" height="7">
<path d="M46.1014 67.8019H55.7187V73.174H46.1014V67.8019Z" fill="white"/>
</mask>
<g mask="url(#mask17_71_1711)">
<mask id="mask18_71_1711" style="mask-type:luminance" maskUnits="userSpaceOnUse" x="46" y="67" width="10" height="7">
<path d="M47.2797 67.8019H54.5205C54.835 67.8019 55.1335 67.9342 55.3524 68.1732C55.5754 68.4078 55.6988 68.7321 55.6988 69.065V71.9153C55.6988 72.2481 55.5754 72.5681 55.3524 72.8071C55.1335 73.0418 54.835 73.174 54.5205 73.174H47.2797C46.9692 73.174 46.6666 73.0418 46.4477 72.8071C46.2248 72.5681 46.1014 72.2481 46.1014 71.9153V69.065C46.1014 68.7321 46.2248 68.4078 46.4477 68.1732C46.6666 67.9342 46.9692 67.8019 47.2797 67.8019Z" fill="white"/>
</mask>
<g mask="url(#mask18_71_1711)">
<mask id="mask19_71_1711" style="mask-type:luminance" maskUnits="userSpaceOnUse" x="46" y="67" width="10" height="7">
<path d="M47.2797 67.8019H54.5205C54.835 67.8019 55.1335 67.9342 55.3524 68.1732C55.5754 68.4078 55.6988 68.7321 55.6988 69.065V71.9153C55.6988 72.2481 55.5754 72.5681 55.3524 72.8071C55.1335 73.0418 54.835 73.174 54.5205 73.174H47.2797C46.9692 73.174 46.6666 73.0418 46.4477 72.8071C46.2248 72.5681 46.1014 72.2481 46.1014 71.9153V69.065C46.1014 68.7321 46.2248 68.4078 46.4477 68.1732C46.6666 67.9342 46.9692 67.8019 47.2797 67.8019Z" fill="white"/>
</mask>
<g mask="url(#mask19_71_1711)">
<path d="M46.1014 67.8019H55.6988V73.174H46.1014V67.8019Z" fill="#FB811B"/>
</g>
</g>
</g>
<mask id="mask20_71_1711" style="mask-type:luminance" maskUnits="userSpaceOnUse" x="56" y="67" width="10" height="7">
<path d="M56.2879 67.8019H65.9012V73.174H56.2879V67.8019Z" fill="white"/>
</mask>
<g mask="url(#mask20_71_1711)">
<mask id="mask21_71_1711" style="mask-type:luminance" maskUnits="userSpaceOnUse" x="56" y="67" width="10" height="7">
<path d="M57.4662 67.8019H64.707C65.0175 67.8019 65.32 67.9342 65.5389 68.1732C65.7618 68.4078 65.8852 68.7321 65.8852 69.065V71.9153C65.8852 72.2481 65.7618 72.5681 65.5389 72.8071C65.32 73.0418 65.0175 73.174 64.707 73.174H57.4662C57.1517 73.174 56.8531 73.0418 56.6342 72.8071C56.4113 72.5681 56.2879 72.2481 56.2879 71.9153V69.065C56.2879 68.7321 56.4113 68.4078 56.6342 68.1732C56.8531 67.9342 57.1517 67.8019 57.4662 67.8019Z" fill="white"/>
</mask>
<g mask="url(#mask21_71_1711)">
<mask id="mask22_71_1711" style="mask-type:luminance" maskUnits="userSpaceOnUse" x="56" y="67" width="10" height="7">
<path d="M57.4662 67.8019H64.707C65.0175 67.8019 65.32 67.9342 65.5389 68.1732C65.7618 68.4078 65.8852 68.7321 65.8852 69.065V71.9153C65.8852 72.2481 65.7618 72.5681 65.5389 72.8071C65.32 73.0418 65.0175 73.174 64.707 73.174H57.4662C57.1517 73.174 56.8531 73.0418 56.6342 72.8071C56.4113 72.5681 56.2879 72.2481 56.2879 71.9153V69.065C56.2879 68.7321 56.4113 68.4078 56.6342 68.1732C56.8531 67.9342 57.1517 67.8019 57.4662 67.8019Z" fill="white"/>
</mask>
<g mask="url(#mask22_71_1711)">
<path d="M56.2879 67.8019H65.8813V73.174H56.2879V67.8019Z" fill="black"/>
</g>
</g>
</g>
<mask id="mask23_71_1711" style="mask-type:luminance" maskUnits="userSpaceOnUse" x="66" y="67" width="11" height="7">
<path d="M66.4744 67.8019H76.0877V73.174H66.4744V67.8019Z" fill="white"/>
</mask>
<g mask="url(#mask23_71_1711)">
<mask id="mask24_71_1711" style="mask-type:luminance" maskUnits="userSpaceOnUse" x="66" y="67" width="11" height="7">
<path d="M67.6527 67.8019H74.8935C75.204 67.8019 75.5025 67.9342 75.7254 68.1732C75.9444 68.4078 76.0717 68.7321 76.0717 69.065V71.9153C76.0717 72.2481 75.9444 72.5681 75.7254 72.8071C75.5025 73.0418 75.204 73.174 74.8935 73.174H67.6527C67.3382 73.174 67.0396 73.0418 66.8167 72.8071C66.5978 72.5681 66.4744 72.2481 66.4744 71.9153V69.065C66.4744 68.7321 66.5978 68.4078 66.8167 68.1732C67.0396 67.9342 67.3382 67.8019 67.6527 67.8019Z" fill="white"/>
</mask>
<g mask="url(#mask24_71_1711)">
<mask id="mask25_71_1711" style="mask-type:luminance" maskUnits="userSpaceOnUse" x="66" y="67" width="11" height="7">
<path d="M67.6527 67.8019H74.8935C75.204 67.8019 75.5025 67.9342 75.7254 68.1732C75.9444 68.4078 76.0717 68.7321 76.0717 69.065V71.9153C76.0717 72.2481 75.9444 72.5681 75.7254 72.8071C75.5025 73.0418 75.204 73.174 74.8935 73.174H67.6527C67.3382 73.174 67.0396 73.0418 66.8167 72.8071C66.5978 72.5681 66.4744 72.2481 66.4744 71.9153V69.065C66.4744 68.7321 66.5978 68.4078 66.8167 68.1732C67.0396 67.9342 67.3382 67.8019 67.6527 67.8019Z" fill="white"/>
</mask>
<g mask="url(#mask25_71_1711)">
<path d="M66.4744 67.8019H76.0678V73.174H66.4744V67.8019Z" fill="#FB811B"/>
</g>
</g>
</g>
<mask id="mask26_71_1711" style="mask-type:luminance" maskUnits="userSpaceOnUse" x="56" y="61" width="5" height="6">
<path d="M56.2879 61.4996H60.5989V66.876H56.2879V61.4996Z" fill="white"/>
</mask>
<g mask="url(#mask26_71_1711)">
<mask id="mask27_71_1711" style="mask-type:luminance" maskUnits="userSpaceOnUse" x="56" y="61" width="5" height="6">
<path d="M57.4662 61.4996H59.4207C59.7351 61.4996 60.0337 61.6362 60.2526 61.8709C60.4755 62.1055 60.5989 62.4298 60.5989 62.7627V65.613C60.5989 65.9458 60.4755 66.2701 60.2526 66.5048C60.0337 66.7437 59.7351 66.876 59.4207 66.876H57.4662C57.1517 66.876 56.8531 66.7437 56.6342 66.5048C56.4113 66.2701 56.2879 65.9458 56.2879 65.613V62.7627C56.2879 62.4298 56.4113 62.1055 56.6342 61.8709C56.8531 61.6362 57.1517 61.4996 57.4662 61.4996Z" fill="white"/>
</mask>
<g mask="url(#mask27_71_1711)">
<mask id="mask28_71_1711" style="mask-type:luminance" maskUnits="userSpaceOnUse" x="56" y="61" width="5" height="6">
<path d="M57.4662 61.4996H59.4207C59.7351 61.4996 60.0337 61.6362 60.2526 61.8709C60.4755 62.1055 60.5989 62.4298 60.5989 62.7627V65.613C60.5989 65.9458 60.4755 66.2701 60.2526 66.5048C60.0337 66.7437 59.7351 66.876 59.4207 66.876H57.4662C57.1517 66.876 56.8531 66.7437 56.6342 66.5048C56.4113 66.2701 56.2879 65.9458 56.2879 65.613V62.7627C56.2879 62.4298 56.4113 62.1055 56.6342 61.8709C56.8531 61.6362 57.1517 61.4996 57.4662 61.4996Z" fill="white"/>
</mask>
<g mask="url(#mask28_71_1711)">
<path d="M56.2879 61.4996H60.5989V66.8803H56.2879V61.4996Z" fill="black"/>
</g>
</g>
</g>
<mask id="mask29_71_1711" style="mask-type:luminance" maskUnits="userSpaceOnUse" x="46" y="61" width="10" height="6">
<path d="M46.1014 61.4996H55.7187V66.876H46.1014V61.4996Z" fill="white"/>
</mask>
<g mask="url(#mask29_71_1711)">
<mask id="mask30_71_1711" style="mask-type:luminance" maskUnits="userSpaceOnUse" x="46" y="61" width="10" height="6">
<path d="M47.2797 61.4996H54.5205C54.835 61.4996 55.1335 61.6362 55.3524 61.8709C55.5754 62.1055 55.6988 62.4298 55.6988 62.7627V65.613C55.6988 65.9458 55.5754 66.2701 55.3524 66.5048C55.1335 66.7437 54.835 66.876 54.5205 66.876H47.2797C46.9692 66.876 46.6666 66.7437 46.4477 66.5048C46.2248 66.2701 46.1014 65.9458 46.1014 65.613V62.7627C46.1014 62.4298 46.2248 62.1055 46.4477 61.8709C46.6666 61.6362 46.9692 61.4996 47.2797 61.4996Z" fill="white"/>
</mask>
<g mask="url(#mask30_71_1711)">
<mask id="mask31_71_1711" style="mask-type:luminance" maskUnits="userSpaceOnUse" x="46" y="61" width="10" height="6">
<path d="M47.2797 61.4996H54.5205C54.835 61.4996 55.1335 61.6362 55.3524 61.8709C55.5754 62.1055 55.6988 62.4298 55.6988 62.7627V65.613C55.6988 65.9458 55.5754 66.2701 55.3524 66.5048C55.1335 66.7437 54.835 66.876 54.5205 66.876H47.2797C46.9692 66.876 46.6666 66.7437 46.4477 66.5048C46.2248 66.2701 46.1014 65.9458 46.1014 65.613V62.7627C46.1014 62.4298 46.2248 62.1055 46.4477 61.8709C46.6666 61.6362 46.9692 61.4996 47.2797 61.4996Z" fill="white"/>
</mask>
<g mask="url(#mask31_71_1711)">
<path d="M46.1014 61.4996H55.6988V66.876H46.1014V61.4996Z" fill="#FB811B"/>
</g>
</g>
</g>
<mask id="mask32_71_1711" style="mask-type:luminance" maskUnits="userSpaceOnUse" x="61" y="61" width="11" height="6">
<path d="M61.3911 61.4996H71.0083V66.876H61.3911V61.4996Z" fill="white"/>
</mask>
<g mask="url(#mask32_71_1711)">
<mask id="mask33_71_1711" style="mask-type:luminance" maskUnits="userSpaceOnUse" x="61" y="61" width="10" height="6">
<path d="M62.5694 61.4996H69.8102C70.1246 61.4996 70.4232 61.6362 70.6421 61.8709C70.865 62.1055 70.9884 62.4298 70.9884 62.7627V65.613C70.9884 65.9458 70.865 66.2701 70.6421 66.5048C70.4232 66.7437 70.1246 66.876 69.8102 66.876H62.5694C62.2589 66.876 61.9563 66.7437 61.7374 66.5048C61.5145 66.2701 61.3911 65.9458 61.3911 65.613V62.7627C61.3911 62.4298 61.5145 62.1055 61.7374 61.8709C61.9563 61.6362 62.2589 61.4996 62.5694 61.4996Z" fill="white"/>
</mask>
<g mask="url(#mask33_71_1711)">
<mask id="mask34_71_1711" style="mask-type:luminance" maskUnits="userSpaceOnUse" x="61" y="61" width="10" height="6">
<path d="M62.5694 61.4996H69.8102C70.1246 61.4996 70.4232 61.6362 70.6421 61.8709C70.865 62.1055 70.9884 62.4298 70.9884 62.7627V65.613C70.9884 65.9458 70.865 66.2701 70.6421 66.5048C70.4232 66.7437 70.1246 66.876 69.8102 66.876H62.5694C62.2589 66.876 61.9563 66.7437 61.7374 66.5048C61.5145 66.2701 61.3911 65.9458 61.3911 65.613V62.7627C61.3911 62.4298 61.5145 62.1055 61.7374 61.8709C61.9563 61.6362 62.2589 61.4996 62.5694 61.4996Z" fill="white"/>
</mask>
<g mask="url(#mask34_71_1711)">
<path d="M61.3911 61.4996H70.9884V66.876H61.3911V61.4996Z" fill="#FB811B"/>
</g>
</g>
</g>
<mask id="mask35_71_1711" style="mask-type:luminance" maskUnits="userSpaceOnUse" x="56" y="55" width="10" height="6">
<path d="M56.2879 55.2016H65.9012V60.5737H56.2879V55.2016Z" fill="white"/>
</mask>
<g mask="url(#mask35_71_1711)">
<mask id="mask36_71_1711" style="mask-type:luminance" maskUnits="userSpaceOnUse" x="56" y="55" width="10" height="6">
<path d="M57.4662 55.2016H64.707C65.0175 55.2016 65.32 55.3339 65.5389 55.5686C65.7618 55.8075 65.8852 56.1275 65.8852 56.4646V59.3107C65.8852 59.6478 65.7618 59.9678 65.5389 60.2025C65.32 60.4414 65.0175 60.5737 64.707 60.5737H57.4662C57.1517 60.5737 56.8531 60.4414 56.6342 60.2025C56.4113 59.9678 56.2879 59.6478 56.2879 59.3107V56.4646C56.2879 56.1275 56.4113 55.8075 56.6342 55.5686C56.8531 55.3339 57.1517 55.2016 57.4662 55.2016Z" fill="white"/>
</mask>
<g mask="url(#mask36_71_1711)">
<mask id="mask37_71_1711" style="mask-type:luminance" maskUnits="userSpaceOnUse" x="56" y="55" width="10" height="6">
<path d="M57.4662 55.2016H64.707C65.0175 55.2016 65.32 55.3339 65.5389 55.5686C65.7618 55.8075 65.8852 56.1275 65.8852 56.4646V59.3107C65.8852 59.6478 65.7618 59.9678 65.5389 60.2025C65.32 60.4414 65.0175 60.5737 64.707 60.5737H57.4662C57.1517 60.5737 56.8531 60.4414 56.6342 60.2025C56.4113 59.9678 56.2879 59.6478 56.2879 59.3107V56.4646C56.2879 56.1275 56.4113 55.8075 56.6342 55.5686C56.8531 55.3339 57.1517 55.2016 57.4662 55.2016Z" fill="white"/>
</mask>
<g mask="url(#mask37_71_1711)">
<path d="M56.2879 55.2016H65.8813V60.5737H56.2879V55.2016Z" fill="#FB811B"/>
</g>
</g>
</g>
<mask id="mask38_71_1711" style="mask-type:luminance" maskUnits="userSpaceOnUse" x="66" y="55" width="11" height="6">
<path d="M66.4744 55.2016H76.0877V60.5737H66.4744V55.2016Z" fill="white"/>
</mask>
<g mask="url(#mask38_71_1711)">
<mask id="mask39_71_1711" style="mask-type:luminance" maskUnits="userSpaceOnUse" x="66" y="55" width="11" height="6">
<path d="M67.6527 55.2016H74.8935C75.204 55.2016 75.5025 55.3339 75.7254 55.5686C75.9444 55.8075 76.0717 56.1275 76.0717 56.4646V59.3107C76.0717 59.6478 75.9444 59.9678 75.7254 60.2025C75.5025 60.4414 75.204 60.5737 74.8935 60.5737H67.6527C67.3382 60.5737 67.0396 60.4414 66.8167 60.2025C66.5978 59.9678 66.4744 59.6478 66.4744 59.3107V56.4646C66.4744 56.1275 66.5978 55.8075 66.8167 55.5686C67.0396 55.3339 67.3382 55.2016 67.6527 55.2016Z" fill="white"/>
</mask>
<g mask="url(#mask39_71_1711)">
<mask id="mask40_71_1711" style="mask-type:luminance" maskUnits="userSpaceOnUse" x="66" y="55" width="11" height="6">
<path d="M67.6527 55.2016H74.8935C75.204 55.2016 75.5025 55.3339 75.7254 55.5686C75.9444 55.8075 76.0717 56.1275 76.0717 56.4646V59.3107C76.0717 59.6478 75.9444 59.9678 75.7254 60.2025C75.5025 60.4414 75.204 60.5737 74.8935 60.5737H67.6527C67.3382 60.5737 67.0396 60.4414 66.8167 60.2025C66.5978 59.9678 66.4744 59.6478 66.4744 59.3107V56.4646C66.4744 56.1275 66.5978 55.8075 66.8167 55.5686C67.0396 55.3339 67.3382 55.2016 67.6527 55.2016Z" fill="white"/>
</mask>
<g mask="url(#mask40_71_1711)">
<path d="M66.4744 55.2016H76.0678V60.5737H66.4744V55.2016Z" fill="black"/>
</g>
</g>
</g>
<mask id="mask41_71_1711" style="mask-type:luminance" maskUnits="userSpaceOnUse" x="71" y="61" width="6" height="6">
<path d="M71.7607 61.4954H76.0678V66.8717H71.7607V61.4954Z" fill="white"/>
</mask>
<g mask="url(#mask41_71_1711)">
<mask id="mask42_71_1711" style="mask-type:luminance" maskUnits="userSpaceOnUse" x="71" y="61" width="6" height="6">
<path d="M74.8935 66.8719H72.935C72.6245 66.8719 72.3259 66.7396 72.103 66.5049C71.8841 66.266 71.7607 65.946 71.7607 65.6131V62.7628C71.7607 62.43 71.8841 62.1057 72.103 61.871C72.3259 61.6321 72.6245 61.4998 72.935 61.4998H74.8935C75.204 61.4998 75.5025 61.6321 75.7254 61.871C75.9444 62.1057 76.0678 62.43 76.0678 62.7628V65.6131C76.0678 65.946 75.9444 66.266 75.7254 66.5049C75.5025 66.7396 75.204 66.8719 74.8935 66.8719Z" fill="white"/>
</mask>
<g mask="url(#mask42_71_1711)">
<mask id="mask43_71_1711" style="mask-type:luminance" maskUnits="userSpaceOnUse" x="71" y="61" width="6" height="6">
<path d="M74.8935 66.8719H72.935C72.6245 66.8719 72.3259 66.7396 72.103 66.5049C71.8841 66.266 71.7607 65.946 71.7607 65.6131V62.7628C71.7607 62.43 71.8841 62.1057 72.103 61.871C72.3259 61.6321 72.6245 61.4998 72.935 61.4998H74.8935C75.204 61.4998 75.5025 61.6321 75.7254 61.871C75.9444 62.1057 76.0678 62.43 76.0678 62.7628V65.6131C76.0678 65.946 75.9444 66.266 75.7254 66.5049C75.5025 66.7396 75.204 66.8719 74.8935 66.8719Z" fill="white"/>
</mask>
<g mask="url(#mask43_71_1711)">
<path d="M71.7607 61.4954H76.0678V66.8717H71.7607V61.4954Z" fill="black"/>
</g>
</g>
</g>
<mask id="mask44_71_1711" style="mask-type:luminance" maskUnits="userSpaceOnUse" x="46" y="55" width="10" height="6">
<path d="M46.1014 55.2016H55.7187V60.5737H46.1014V55.2016Z" fill="white"/>
</mask>
<g mask="url(#mask44_71_1711)">
<mask id="mask45_71_1711" style="mask-type:luminance" maskUnits="userSpaceOnUse" x="46" y="55" width="10" height="6">
<path d="M47.2797 55.2016H54.5205C54.835 55.2016 55.1335 55.3339 55.3524 55.5686C55.5754 55.8075 55.6988 56.1275 55.6988 56.4646V59.3107C55.6988 59.6478 55.5754 59.9678 55.3524 60.2025C55.1335 60.4414 54.835 60.5737 54.5205 60.5737H47.2797C46.9692 60.5737 46.6666 60.4414 46.4477 60.2025C46.2248 59.9678 46.1014 59.6478 46.1014 59.3107V56.4646C46.1014 56.1275 46.2248 55.8075 46.4477 55.5686C46.6666 55.3339 46.9692 55.2016 47.2797 55.2016Z" fill="white"/>
</mask>
<g mask="url(#mask45_71_1711)">
<mask id="mask46_71_1711" style="mask-type:luminance" maskUnits="userSpaceOnUse" x="46" y="55" width="10" height="6">
<path d="M47.2797 55.2016H54.5205C54.835 55.2016 55.1335 55.3339 55.3524 55.5686C55.5754 55.8075 55.6988 56.1275 55.6988 56.4646V59.3107C55.6988 59.6478 55.5754 59.9678 55.3524 60.2025C55.1335 60.4414 54.835 60.5737 54.5205 60.5737H47.2797C46.9692 60.5737 46.6666 60.4414 46.4477 60.2025C46.2248 59.9678 46.1014 59.6478 46.1014 59.3107V56.4646C46.1014 56.1275 46.2248 55.8075 46.4477 55.5686C46.6666 55.3339 46.9692 55.2016 47.2797 55.2016Z" fill="white"/>
</mask>
<g mask="url(#mask46_71_1711)">
<path d="M46.1014 55.2016H55.6988V60.5737H46.1014V55.2016Z" fill="black"/>
</g>
</g>
</g>
<mask id="mask47_71_1711" style="mask-type:luminance" maskUnits="userSpaceOnUse" x="64" y="17" width="9" height="10">
<path d="M64.8304 17.5244H72.6802V26.8989H64.8304V17.5244Z" fill="white"/>
</mask>
<g mask="url(#mask47_71_1711)">
<mask id="mask48_71_1711" style="mask-type:luminance" maskUnits="userSpaceOnUse" x="64" y="17" width="9" height="10">
<path d="M64.3607 18.1047L71.7129 17.1916L72.6603 25.9644L65.3081 26.8776L64.3607 18.1047Z" fill="white"/>
</mask>
<g mask="url(#mask48_71_1711)">
<mask id="mask49_71_1711" style="mask-type:luminance" maskUnits="userSpaceOnUse" x="64" y="17" width="9" height="10">
<path d="M64.3607 18.1047L71.7129 17.1916L72.6603 25.9644L65.3081 26.8776L64.3607 18.1047Z" fill="white"/>
</mask>
<g mask="url(#mask49_71_1711)">
<mask id="mask50_71_1711" style="mask-type:luminance" maskUnits="userSpaceOnUse" x="64" y="17" width="9" height="10">
<path d="M64.3607 18.1047L71.7129 17.1916L72.6603 25.9644L65.3081 26.8776L64.3607 18.1047Z" fill="white"/>
</mask>
<g mask="url(#mask50_71_1711)">
<path d="M72.2384 23.2421L70.6421 23.4384L69.1414 22.1498C69.3206 21.962 69.44 21.706 69.4559 21.4329C69.4877 20.8996 69.1733 20.4217 68.7075 20.2851L68.6677 19.931L68.7951 19.9139C69.0021 19.8883 69.1613 19.7005 69.1693 19.4744L69.1852 18.0748C69.1852 17.9298 69.1335 17.7932 69.034 17.6951C68.9344 17.5969 68.8031 17.55 68.6717 17.5671L67.4019 17.7249C67.2705 17.742 67.1511 17.8188 67.0755 17.9383C66.9998 18.0578 66.976 18.2071 67.0118 18.3436L67.3262 19.7005C67.378 19.9224 67.5731 20.0675 67.78 20.0419L67.9074 20.0248L67.9831 20.7161C68.0069 20.938 68.194 21.1001 68.409 21.0745C68.4806 21.066 68.5563 21.0916 68.612 21.1513C68.6677 21.2068 68.6956 21.2836 68.6916 21.3689C68.6837 21.4799 68.612 21.6036 68.4647 21.6249C68.3373 21.6377 68.2736 21.6036 68.2139 21.4799C68.1423 21.3433 67.991 21.2665 67.8358 21.2836C67.7084 21.3006 67.6009 21.3817 67.5412 21.5055C67.4855 21.6335 67.4895 21.7828 67.5531 21.9023C67.6447 22.073 67.7761 22.2052 67.9233 22.2991L66.7331 23.9248L65.1409 24.1211C65.0692 24.1296 65.0175 24.1979 65.0294 24.2747L65.2961 26.741C65.3041 26.8178 65.3678 26.8733 65.4354 26.8648L72.5329 25.9815C72.6046 25.973 72.6524 25.9047 72.6484 25.8279L72.3777 23.3616C72.3697 23.2848 72.306 23.2293 72.2384 23.2421ZM68.4767 18.1474C68.5483 18.1388 68.608 18.1943 68.62 18.2711C68.6279 18.3436 68.5762 18.4119 68.5045 18.4205C68.4369 18.429 68.3732 18.3778 68.3652 18.301C68.3572 18.2242 68.405 18.1559 68.4767 18.1474ZM67.7442 18.5186C67.6765 18.5229 67.6129 18.4717 67.6049 18.3948C67.5969 18.318 67.6447 18.2498 67.7164 18.2412C67.784 18.2327 67.8477 18.2882 67.8597 18.365C67.8636 18.4375 67.8159 18.5101 67.7442 18.5186ZM68.0189 19.2482C68.003 19.133 68.0786 19.0306 68.1861 19.0178C68.2896 19.005 68.3851 19.0861 68.397 19.2013C68.409 19.3122 68.3334 19.4147 68.2299 19.4275C68.1224 19.4445 68.0308 19.3592 68.0189 19.2482ZM68.5523 21.8852C68.7951 21.8255 68.9344 21.5951 68.9464 21.386C68.9543 21.2196 68.8986 21.0617 68.7871 20.9508C68.6797 20.8355 68.5284 20.7801 68.3732 20.8014C68.3055 20.8099 68.2458 20.7545 68.2378 20.6819L68.1622 19.995L68.4169 19.9608L68.4647 20.4131C68.4727 20.4729 68.5125 20.5241 68.5682 20.5326C68.9543 20.6094 69.229 20.9849 69.2011 21.4159C69.1852 21.6633 69.0578 21.898 68.8628 22.0388C68.8071 22.0815 68.7434 22.1156 68.6797 22.137C68.5682 22.1754 68.4528 22.1839 68.3453 22.1668L68.5523 21.8852ZM67.7761 21.7657C67.7522 21.7231 67.7522 21.6719 67.7721 21.6335C67.788 21.5908 67.8238 21.5652 67.8676 21.5609C67.9154 21.5524 67.9711 21.578 67.991 21.6164C68.0547 21.7444 68.1383 21.8255 68.2378 21.8682L68.0826 22.0815C67.9592 22.009 67.8517 21.9023 67.7761 21.7657ZM68.1662 22.4101C68.2935 22.4485 68.4209 22.4613 68.5563 22.4442C68.62 22.4399 68.6876 22.4229 68.7553 22.4015C68.815 22.3802 68.8707 22.3503 68.9265 22.3162L70.2839 23.4811L67.0914 23.8779L68.1662 22.4101ZM66.4187 26.4637L65.531 26.5746L65.4752 26.0242L66.359 25.9132L66.4187 26.4637ZM66.3311 25.6401L65.4434 25.7511L65.3837 25.2006L66.2714 25.094L66.3311 25.6401ZM66.2435 24.8166L65.3558 24.9276L65.2961 24.3814L66.1838 24.2704L66.2435 24.8166ZM70.2242 25.99L67.6885 26.3058L67.6288 25.7596L70.1645 25.4439L70.2242 25.99ZM70.1326 25.1665L67.6009 25.4823L67.5412 24.9361L70.0769 24.6203L70.1326 25.1665ZM70.045 24.3473L67.5094 24.6587L67.4496 24.1126L69.9853 23.7968L70.045 24.3473ZM72.3777 25.7255L71.49 25.8322L71.4303 25.286L72.318 25.175L72.3777 25.7255ZM72.2901 24.902L71.4024 25.0129L71.3427 24.4625L72.2304 24.3515L72.2901 24.902ZM72.1986 24.0784L71.3149 24.1894L71.2552 23.6389L72.1428 23.528L72.1986 24.0784Z" fill="black"/>
</g>
</g>
</g>
</g>
<path d="M67.0675 11.7043L67.6328 17.7335" stroke="black" stroke-width="0.220086"/>
<path d="M68.0706 11.2349L68.6478 17.6225" stroke="black" stroke-width="0.220087"/>
<mask id="mask51_71_1711" style="mask-type:luminance" maskUnits="userSpaceOnUse" x="63" y="23" width="11" height="7">
<path d="M63.8153 23.1397H73.7749V29.4889H63.8153V23.1397Z" fill="white"/>
</mask>
<g mask="url(#mask51_71_1711)">
<mask id="mask52_71_1711" style="mask-type:luminance" maskUnits="userSpaceOnUse" x="63" y="23" width="11" height="7">
<path d="M73.8187 28.4011L64.2611 29.5361L63.7118 24.1939L73.2654 23.0589L73.8187 28.4011Z" fill="white"/>
</mask>
<g mask="url(#mask52_71_1711)">
<mask id="mask53_71_1711" style="mask-type:luminance" maskUnits="userSpaceOnUse" x="63" y="23" width="11" height="7">
<path d="M72.6484 28.5372L65.4514 29.3949C65.1409 29.429 64.8304 29.3309 64.5836 29.1218C64.3408 28.9127 64.1855 28.6098 64.1497 28.277L63.8591 25.4437C63.8233 25.1109 63.9148 24.778 64.1099 24.5178C64.3049 24.2575 64.5876 24.0868 64.898 24.0527L72.0951 23.1993C72.4056 23.1609 72.72 23.2547 72.9629 23.4681C73.2057 23.6772 73.3609 23.9801 73.3967 24.3129L73.6873 27.1462C73.7232 27.479 73.6316 27.8119 73.4366 28.0721C73.2415 28.3324 72.9589 28.5031 72.6484 28.5372Z" fill="white"/>
</mask>
<g mask="url(#mask53_71_1711)">
<mask id="mask54_71_1711" style="mask-type:luminance" maskUnits="userSpaceOnUse" x="63" y="23" width="11" height="7">
<path d="M73.8187 28.4011L64.2611 29.5361L63.7118 24.1939L73.2654 23.0589L73.8187 28.4011Z" fill="white"/>
</mask>
<g mask="url(#mask54_71_1711)">
<mask id="mask55_71_1711" style="mask-type:luminance" maskUnits="userSpaceOnUse" x="63" y="23" width="11" height="7">
<path d="M72.6484 28.5372L65.4514 29.3949C65.1409 29.429 64.8304 29.3309 64.5836 29.1218C64.3408 28.9127 64.1855 28.6098 64.1497 28.277L63.8591 25.4437C63.8233 25.1109 63.9148 24.778 64.1099 24.5178C64.3049 24.2575 64.5876 24.0868 64.898 24.0527L72.0951 23.1993C72.4056 23.1609 72.72 23.2547 72.9629 23.4681C73.2057 23.6772 73.3609 23.9801 73.3967 24.3129L73.6873 27.1462C73.7232 27.479 73.6316 27.8119 73.4366 28.0721C73.2415 28.3324 72.9589 28.5031 72.6484 28.5372Z" fill="white"/>
</mask>
<g mask="url(#mask55_71_1711)">
<path d="M73.8187 28.4011L64.281 29.5319L63.7277 24.1896L73.2654 23.0589L73.8187 28.4011Z" fill="black"/>
</g>
</g>
</g>
</g>
</g>
<mask id="mask56_71_1711" style="mask-type:luminance" maskUnits="userSpaceOnUse" x="56" y="36" width="10" height="6">
<path d="M56.2799 36.2947H65.8853V41.6711H56.2799V36.2947Z" fill="white"/>
</mask>
<g mask="url(#mask56_71_1711)">
<mask id="mask57_71_1711" style="mask-type:luminance" maskUnits="userSpaceOnUse" x="56" y="36" width="10" height="6">
<path d="M64.7071 41.6711H57.4663C57.1519 41.6711 56.8533 41.5346 56.6344 41.2999C56.4115 41.0652 56.2881 40.7409 56.2881 40.4081V37.5578C56.2881 37.2249 56.4115 36.9006 56.6344 36.666C56.8533 36.427 57.1519 36.2947 57.4663 36.2947H64.7071C65.0176 36.2947 65.3162 36.427 65.5391 36.666C65.758 36.9006 65.8854 37.2249 65.8854 37.5578V40.4081C65.8854 40.7409 65.758 41.0652 65.5391 41.2999C65.3162 41.5346 65.0176 41.6711 64.7071 41.6711Z" fill="white"/>
</mask>
<g mask="url(#mask57_71_1711)">
<mask id="mask58_71_1711" style="mask-type:luminance" maskUnits="userSpaceOnUse" x="56" y="36" width="10" height="6">
<path d="M64.7071 41.6711H57.4663C57.1519 41.6711 56.8533 41.5346 56.6344 41.2999C56.4115 41.0652 56.2881 40.7409 56.2881 40.4081V37.5578C56.2881 37.2249 56.4115 36.9006 56.6344 36.666C56.8533 36.427 57.1519 36.2947 57.4663 36.2947H64.7071C65.0176 36.2947 65.3162 36.427 65.5391 36.666C65.758 36.9006 65.8854 37.2249 65.8854 37.5578V40.4081C65.8854 40.7409 65.758 41.0652 65.5391 41.2999C65.3162 41.5346 65.0176 41.6711 64.7071 41.6711Z" fill="white"/>
</mask>
<g mask="url(#mask58_71_1711)">
<path d="M56.2881 36.2947H65.8854V41.6711H56.2881V36.2947Z" fill="#FB811B"/>
</g>
</g>
</g>
<mask id="mask59_71_1711" style="mask-type:luminance" maskUnits="userSpaceOnUse" x="46" y="36" width="10" height="6">
<path d="M46.0815 36.2947H55.6988V41.6711H46.0815V36.2947Z" fill="white"/>
</mask>
<g mask="url(#mask59_71_1711)">
<mask id="mask60_71_1711" style="mask-type:luminance" maskUnits="userSpaceOnUse" x="46" y="36" width="10" height="6">
<path d="M54.5205 41.6711H47.2797C46.9652 41.6711 46.6666 41.5346 46.4477 41.2999C46.2248 41.0652 46.1014 40.7409 46.1014 40.4081V37.5578C46.1014 37.2249 46.2248 36.9006 46.4477 36.666C46.6666 36.427 46.9652 36.2947 47.2797 36.2947H54.5205C54.831 36.2947 55.1335 36.427 55.3524 36.666C55.5754 36.9006 55.6988 37.2249 55.6988 37.5578V40.4081C55.6988 40.7409 55.5754 41.0652 55.3524 41.2999C55.1335 41.5346 54.831 41.6711 54.5205 41.6711Z" fill="white"/>
</mask>
<g mask="url(#mask60_71_1711)">
<mask id="mask61_71_1711" style="mask-type:luminance" maskUnits="userSpaceOnUse" x="46" y="36" width="10" height="6">
<path d="M54.5205 41.6711H47.2797C46.9652 41.6711 46.6666 41.5346 46.4477 41.2999C46.2248 41.0652 46.1014 40.7409 46.1014 40.4081V37.5578C46.1014 37.2249 46.2248 36.9006 46.4477 36.666C46.6666 36.427 46.9652 36.2947 47.2797 36.2947H54.5205C54.831 36.2947 55.1335 36.427 55.3524 36.666C55.5754 36.9006 55.6988 37.2249 55.6988 37.5578V40.4081C55.6988 40.7409 55.5754 41.0652 55.3524 41.2999C55.1335 41.5346 54.831 41.6711 54.5205 41.6711Z" fill="white"/>
</mask>
<g mask="url(#mask61_71_1711)">
<path d="M46.1054 36.2947H55.6988V41.6711H46.1054V36.2947Z" fill="black"/>
</g>
</g>
</g>
<mask id="mask62_71_1711" style="mask-type:luminance" maskUnits="userSpaceOnUse" x="61" y="42" width="5" height="6">
<path d="M61.5742 42.4903H65.8852V47.871H61.5742V42.4903Z" fill="white"/>
</mask>
<g mask="url(#mask62_71_1711)">
<mask id="mask63_71_1711" style="mask-type:luminance" maskUnits="userSpaceOnUse" x="61" y="42" width="5" height="6">
<path d="M64.707 47.8709H62.7525C62.438 47.8709 62.1394 47.7386 61.9165 47.4996C61.6976 47.265 61.5742 46.9449 61.5742 46.6078V43.7575C61.5742 43.4247 61.6976 43.1047 61.9165 42.8657C62.1394 42.631 62.438 42.4988 62.7525 42.4988H64.707C65.0175 42.4988 65.32 42.631 65.5389 42.8657C65.7618 43.1047 65.8852 43.4247 65.8852 43.7575V46.6078C65.8852 46.9449 65.7618 47.265 65.5389 47.4996C65.32 47.7386 65.0175 47.8709 64.707 47.8709Z" fill="white"/>
</mask>
<g mask="url(#mask63_71_1711)">
<mask id="mask64_71_1711" style="mask-type:luminance" maskUnits="userSpaceOnUse" x="61" y="42" width="5" height="6">
<path d="M64.707 47.8709H62.7525C62.438 47.8709 62.1394 47.7386 61.9165 47.4996C61.6976 47.265 61.5742 46.9449 61.5742 46.6078V43.7575C61.5742 43.4247 61.6976 43.1047 61.9165 42.8657C62.1394 42.631 62.438 42.4988 62.7525 42.4988H64.707C65.0175 42.4988 65.32 42.631 65.5389 42.8657C65.7618 43.1047 65.8852 43.4247 65.8852 43.7575V46.6078C65.8852 46.9449 65.7618 47.265 65.5389 47.4996C65.32 47.7386 65.0175 47.8709 64.707 47.8709Z" fill="white"/>
</mask>
<g mask="url(#mask64_71_1711)">
<path d="M61.5742 42.4904H65.8852V47.871H61.5742V42.4904Z" fill="black"/>
</g>
</g>
</g>
<mask id="mask65_71_1711" style="mask-type:luminance" maskUnits="userSpaceOnUse" x="66" y="42" width="11" height="6">
<path d="M66.4545 42.4989H76.0678V47.871H66.4545V42.4989Z" fill="white"/>
</mask>
<g mask="url(#mask65_71_1711)">
<mask id="mask66_71_1711" style="mask-type:luminance" maskUnits="userSpaceOnUse" x="66" y="42" width="11" height="6">
<path d="M74.8935 47.871H67.6487C67.3382 47.871 67.0396 47.7387 66.8167 47.4998C66.5978 47.2651 66.4744 46.9451 66.4744 46.608V43.7576C66.4744 43.4248 66.5978 43.1048 66.8167 42.8658C67.0396 42.6312 67.3382 42.4989 67.6487 42.4989H74.8935C75.204 42.4989 75.5025 42.6312 75.7254 42.8658C75.9444 43.1048 76.0678 43.4248 76.0678 43.7576V46.608C76.0678 46.9451 75.9444 47.2651 75.7254 47.4998C75.5025 47.7387 75.204 47.871 74.8935 47.871Z" fill="white"/>
</mask>
<g mask="url(#mask66_71_1711)">
<mask id="mask67_71_1711" style="mask-type:luminance" maskUnits="userSpaceOnUse" x="66" y="42" width="11" height="6">
<path d="M74.8935 47.871H67.6487C67.3382 47.871 67.0396 47.7387 66.8167 47.4998C66.5978 47.2651 66.4744 46.9451 66.4744 46.608V43.7576C66.4744 43.4248 66.5978 43.1048 66.8167 42.8658C67.0396 42.6312 67.3382 42.4989 67.6487 42.4989H74.8935C75.204 42.4989 75.5025 42.6312 75.7254 42.8658C75.9444 43.1048 76.0678 43.4248 76.0678 43.7576V46.608C76.0678 46.9451 75.9444 47.2651 75.7254 47.4998C75.5025 47.7387 75.204 47.871 74.8935 47.871Z" fill="white"/>
</mask>
<g mask="url(#mask67_71_1711)">
<path d="M66.4744 42.4989H76.0678V47.871H66.4744V42.4989Z" fill="#FB811B"/>
</g>
</g>
</g>
<mask id="mask68_71_1711" style="mask-type:luminance" maskUnits="userSpaceOnUse" x="51" y="42" width="10" height="6">
<path d="M51.1727 42.597H60.786V47.9691H51.1727V42.597Z" fill="white"/>
</mask>
<g mask="url(#mask68_71_1711)">
<mask id="mask69_71_1711" style="mask-type:luminance" maskUnits="userSpaceOnUse" x="51" y="42" width="10" height="6">
<path d="M59.6117 47.9691H52.367C52.0565 47.9691 51.7579 47.8369 51.535 47.6022C51.3161 47.3632 51.1927 47.0432 51.1927 46.7061V43.86C51.1927 43.523 51.3161 43.2029 51.535 42.9683C51.7579 42.7293 52.0565 42.597 52.367 42.597H59.6117C59.9222 42.597 60.2208 42.7293 60.4437 42.9683C60.6626 43.2029 60.786 43.523 60.786 43.86V46.7061C60.786 47.0432 60.6626 47.3632 60.4437 47.6022C60.2208 47.8369 59.9222 47.9691 59.6117 47.9691Z" fill="white"/>
</mask>
<g mask="url(#mask69_71_1711)">
<mask id="mask70_71_1711" style="mask-type:luminance" maskUnits="userSpaceOnUse" x="51" y="42" width="10" height="6">
<path d="M59.6117 47.9691H52.367C52.0565 47.9691 51.7579 47.8369 51.535 47.6022C51.3161 47.3632 51.1927 47.0432 51.1927 46.7061V43.86C51.1927 43.523 51.3161 43.2029 51.535 42.9683C51.7579 42.7293 52.0565 42.597 52.367 42.597H59.6117C59.9222 42.597 60.2208 42.7293 60.4437 42.9683C60.6626 43.2029 60.786 43.523 60.786 43.86V46.7061C60.786 47.0432 60.6626 47.3632 60.4437 47.6022C60.2208 47.8369 59.9222 47.9691 59.6117 47.9691Z" fill="white"/>
</mask>
<g mask="url(#mask70_71_1711)">
<path d="M51.1927 42.597H60.786V47.9691H51.1927V42.597Z" fill="#FB811B"/>
</g>
</g>
</g>
<mask id="mask71_71_1711" style="mask-type:luminance" maskUnits="userSpaceOnUse" x="56" y="48" width="10" height="7">
<path d="M56.2799 48.8993H65.8853V54.2714H56.2799V48.8993Z" fill="white"/>
</mask>
<g mask="url(#mask71_71_1711)">
<mask id="mask72_71_1711" style="mask-type:luminance" maskUnits="userSpaceOnUse" x="56" y="48" width="10" height="7">
<path d="M64.7071 54.2714H57.4663C57.1519 54.2714 56.8533 54.1391 56.6344 53.9002C56.4115 53.6655 56.2881 53.3455 56.2881 53.0084V50.1623C56.2881 49.8252 56.4115 49.5052 56.6344 49.2663C56.8533 49.0316 57.1519 48.8993 57.4663 48.8993H64.7071C65.0176 48.8993 65.3162 49.0316 65.5391 49.2663C65.758 49.5052 65.8854 49.8252 65.8854 50.1623V53.0084C65.8854 53.3455 65.758 53.6655 65.5391 53.9002C65.3162 54.1391 65.0176 54.2714 64.7071 54.2714Z" fill="white"/>
</mask>
<g mask="url(#mask72_71_1711)">
<mask id="mask73_71_1711" style="mask-type:luminance" maskUnits="userSpaceOnUse" x="56" y="48" width="10" height="7">
<path d="M64.7071 54.2714H57.4663C57.1519 54.2714 56.8533 54.1391 56.6344 53.9002C56.4115 53.6655 56.2881 53.3455 56.2881 53.0084V50.1623C56.2881 49.8252 56.4115 49.5052 56.6344 49.2663C56.8533 49.0316 57.1519 48.8993 57.4663 48.8993H64.7071C65.0176 48.8993 65.3162 49.0316 65.5391 49.2663C65.758 49.5052 65.8854 49.8252 65.8854 50.1623V53.0084C65.8854 53.3455 65.758 53.6655 65.5391 53.9002C65.3162 54.1391 65.0176 54.2714 64.7071 54.2714Z" fill="white"/>
</mask>
<g mask="url(#mask73_71_1711)">
<path d="M56.2881 48.8993H65.8854V54.2714H56.2881V48.8993Z" fill="black"/>
</g>
</g>
</g>
<mask id="mask74_71_1711" style="mask-type:luminance" maskUnits="userSpaceOnUse" x="46" y="48" width="10" height="7">
<path d="M46.0815 48.8993H55.6988V54.2714H46.0815V48.8993Z" fill="white"/>
</mask>
<g mask="url(#mask74_71_1711)">
<mask id="mask75_71_1711" style="mask-type:luminance" maskUnits="userSpaceOnUse" x="46" y="48" width="10" height="7">
<path d="M54.5205 54.2714H47.2797C46.9652 54.2714 46.6666 54.1391 46.4477 53.9002C46.2248 53.6655 46.1014 53.3455 46.1014 53.0084V50.1623C46.1014 49.8252 46.2248 49.5052 46.4477 49.2663C46.6666 49.0316 46.9652 48.8993 47.2797 48.8993H54.5205C54.831 48.8993 55.1335 49.0316 55.3524 49.2663C55.5754 49.5052 55.6988 49.8252 55.6988 50.1623V53.0084C55.6988 53.3455 55.5754 53.6655 55.3524 53.9002C55.1335 54.1391 54.831 54.2714 54.5205 54.2714Z" fill="white"/>
</mask>
<g mask="url(#mask75_71_1711)">
<mask id="mask76_71_1711" style="mask-type:luminance" maskUnits="userSpaceOnUse" x="46" y="48" width="10" height="7">
<path d="M54.5205 54.2714H47.2797C46.9652 54.2714 46.6666 54.1391 46.4477 53.9002C46.2248 53.6655 46.1014 53.3455 46.1014 53.0084V50.1623C46.1014 49.8252 46.2248 49.5052 46.4477 49.2663C46.6666 49.0316 46.9652 48.8993 47.2797 48.8993H54.5205C54.831 48.8993 55.1335 49.0316 55.3524 49.2663C55.5754 49.5052 55.6988 49.8252 55.6988 50.1623V53.0084C55.6988 53.3455 55.5754 53.6655 55.3524 53.9002C55.1335 54.1391 54.831 54.2714 54.5205 54.2714Z" fill="white"/>
</mask>
<g mask="url(#mask76_71_1711)">
<path d="M46.1054 48.8993H55.6988V54.2714H46.1054V48.8993Z" fill="#FB811B"/>
</g>
</g>
</g>
<mask id="mask77_71_1711" style="mask-type:luminance" maskUnits="userSpaceOnUse" x="46" y="42" width="5" height="6">
<path d="M46.1014 42.597H50.4124V47.9777H46.1014V42.597Z" fill="white"/>
</mask>
<g mask="url(#mask77_71_1711)">
<mask id="mask78_71_1711" style="mask-type:luminance" maskUnits="userSpaceOnUse" x="46" y="42" width="5" height="6">
<path d="M47.2797 42.597H49.2342C49.5486 42.597 49.8472 42.7293 50.0701 42.9683C50.289 43.2029 50.4124 43.5272 50.4124 43.86V46.7104C50.4124 47.0432 50.289 47.3675 50.0701 47.6022C49.8472 47.8368 49.5486 47.9734 49.2342 47.9734H47.2797C46.9692 47.9734 46.6666 47.8368 46.4477 47.6022C46.2248 47.3675 46.1014 47.0432 46.1014 46.7104V43.86C46.1014 43.5272 46.2248 43.2029 46.4477 42.9683C46.6666 42.7293 46.9692 42.597 47.2797 42.597Z" fill="white"/>
</mask>
<g mask="url(#mask78_71_1711)">
<mask id="mask79_71_1711" style="mask-type:luminance" maskUnits="userSpaceOnUse" x="46" y="42" width="5" height="6">
<path d="M47.2797 42.597H49.2342C49.5486 42.597 49.8472 42.7293 50.0701 42.9683C50.289 43.2029 50.4124 43.5272 50.4124 43.86V46.7104C50.4124 47.0432 50.289 47.3675 50.0701 47.6022C49.8472 47.8368 49.5486 47.9734 49.2342 47.9734H47.2797C46.9692 47.9734 46.6666 47.8368 46.4477 47.6022C46.2248 47.3675 46.1014 47.0432 46.1014 46.7104V43.86C46.1014 43.5272 46.2248 43.2029 46.4477 42.9683C46.6666 42.7293 46.9692 42.597 47.2797 42.597Z" fill="white"/>
</mask>
<g mask="url(#mask79_71_1711)">
<path d="M46.1014 42.597H50.4124V47.9777H46.1014V42.597Z" fill="black"/>
</g>
</g>
</g>
<mask id="mask80_71_1711" style="mask-type:luminance" maskUnits="userSpaceOnUse" x="66" y="48" width="11" height="7">
<path d="M66.4545 48.8993H76.0678V54.2714H66.4545V48.8993Z" fill="white"/>
</mask>
<g mask="url(#mask80_71_1711)">
<mask id="mask81_71_1711" style="mask-type:luminance" maskUnits="userSpaceOnUse" x="66" y="48" width="11" height="7">
<path d="M74.8935 54.2714H67.6487C67.3382 54.2714 67.0396 54.1391 66.8167 53.9002C66.5978 53.6655 66.4744 53.3455 66.4744 53.0084V50.1623C66.4744 49.8252 66.5978 49.5052 66.8167 49.2663C67.0396 49.0316 67.3382 48.8993 67.6487 48.8993H74.8935C75.204 48.8993 75.5025 49.0316 75.7254 49.2663C75.9444 49.5052 76.0678 49.8252 76.0678 50.1623V53.0084C76.0678 53.3455 75.9444 53.6655 75.7254 53.9002C75.5025 54.1391 75.204 54.2714 74.8935 54.2714Z" fill="white"/>
</mask>
<g mask="url(#mask81_71_1711)">
<mask id="mask82_71_1711" style="mask-type:luminance" maskUnits="userSpaceOnUse" x="66" y="48" width="11" height="7">
<path d="M74.8935 54.2714H67.6487C67.3382 54.2714 67.0396 54.1391 66.8167 53.9002C66.5978 53.6655 66.4744 53.3455 66.4744 53.0084V50.1623C66.4744 49.8252 66.5978 49.5052 66.8167 49.2663C67.0396 49.0316 67.3382 48.8993 67.6487 48.8993H74.8935C75.204 48.8993 75.5025 49.0316 75.7254 49.2663C75.9444 49.5052 76.0678 49.8252 76.0678 50.1623V53.0084C76.0678 53.3455 75.9444 53.6655 75.7254 53.9002C75.5025 54.1391 75.204 54.2714 74.8935 54.2714Z" fill="white"/>
</mask>
<g mask="url(#mask82_71_1711)">
<path d="M66.4744 48.8993H76.0678V54.2714H66.4744V48.8993Z" fill="#FB811B"/>
</g>
</g>
</g>
<path d="M64.6234 11.9389L67.175 9.10142" stroke="black" stroke-width="0.220086"/>
<mask id="mask83_71_1711" style="mask-type:luminance" maskUnits="userSpaceOnUse" x="34" y="0" width="51" height="25">
<path d="M34.7088 0H84.5665V24.0315H34.7088V0Z" fill="white"/>
</mask>
<g mask="url(#mask83_71_1711)">
<path d="M44.959 13.219L74.9254 7.19409" stroke="black" stroke-width="2.20087"/>
</g>
<mask id="mask84_71_1711" style="mask-type:luminance" maskUnits="userSpaceOnUse" x="35" y="0" width="50" height="28">
<path d="M35.7278 0H84.5665V27.3085H35.7278V0Z" fill="white"/>
</mask>
<g mask="url(#mask84_71_1711)">
<path d="M45.4287 16.5814L75.6379 10.5095" stroke="black" stroke-width="2.20087"/>
</g>
<path d="M75.6617 10.7869L74.8457 6.89115" stroke="black" stroke-width="1.5406" stroke-linecap="round"/>
<path d="M46.6268 15.6939L49.1784 12.8563" stroke="black" stroke-width="0.220086"/>
<path d="M49.27 14.9215L51.8176 12.0798" stroke="black" stroke-width="0.220086"/>
<path d="M52.0007 14.4308L54.5523 11.5933" stroke="black" stroke-width="0.220086"/>
<path d="M54.3891 14.0554L56.9407 11.2178" stroke="black" stroke-width="0.220086"/>
<path d="M57.0283 13.3598L59.5799 10.518" stroke="black" stroke-width="0.220086"/>
<path d="M59.345 13.0099L61.8966 10.1724" stroke="black" stroke-width="0.220086"/>
<path d="M61.9842 12.4766L64.5358 9.63479" stroke="black" stroke-width="0.220086"/>
<path d="M67.2586 11.4056L69.8102 8.56378" stroke="black" stroke-width="0.220086"/>
<path d="M69.8978 10.8679L72.4493 8.03041" stroke="black" stroke-width="0.220086"/>
<path d="M72.5369 10.3346L75.0885 7.49278" stroke="black" stroke-width="0.220086"/>
<path d="M56.467 11.2136L56.9845 13.4153" stroke="black" stroke-width="0.220086" stroke-linecap="round"/>
<path d="M59.0146 10.6887L59.5282 12.8905" stroke="black" stroke-width="0.220086" stroke-linecap="round"/>
<path d="M61.5583 10.1895L62.0758 12.3912" stroke="black" stroke-width="0.220086" stroke-linecap="round"/>
<path d="M64.1059 9.99321L64.6234 12.195" stroke="black" stroke-width="0.220086" stroke-linecap="round"/>
<path d="M66.6416 9.48118L67.1591 11.6829" stroke="black" stroke-width="0.220086" stroke-linecap="round"/>
<path d="M69.1812 8.97341L69.6987 11.1752" stroke="black" stroke-width="0.220086" stroke-linecap="round"/>
<path d="M71.8085 8.3547L72.326 10.5565" stroke="black" stroke-width="0.220086" stroke-linecap="round"/>
<path d="M48.8242 13.3684L49.3416 15.5701" stroke="black" stroke-width="0.220086" stroke-linecap="round"/>
<path d="M51.3718 12.6814L51.8893 14.8831" stroke="black" stroke-width="0.220086" stroke-linecap="round"/>
<path d="M53.9194 11.9517L54.4369 14.1578" stroke="black" stroke-width="0.220086" stroke-linecap="round"/>
<path d="M46.2766 13.1337L46.794 15.3354" stroke="black" stroke-width="0.220086" stroke-linecap="round"/>
<path d="M9.87346 25.5207L9.33209 21.7743" stroke="black" stroke-width="1.5406" stroke-linecap="round"/>
<mask id="mask85_71_1711" style="mask-type:luminance" maskUnits="userSpaceOnUse" x="13" y="74" width="93" height="20">
<path d="M13.3088 74.2792H105.023V93.4037H13.3088V74.2792Z" fill="white"/>
</mask>
<g mask="url(#mask85_71_1711)">
<mask id="mask86_71_1711" style="mask-type:luminance" maskUnits="userSpaceOnUse" x="13" y="74" width="93" height="20">
<path d="M105.023 74.2792H13.3088V93.9413H105.023V74.2792Z" fill="white"/>
</mask>
<g mask="url(#mask86_71_1711)">
<mask id="mask87_71_1711" style="mask-type:luminance" maskUnits="userSpaceOnUse" x="13" y="78" width="13" height="13">
<path d="M13.7984 78.6485H25.5373V90.6643H13.7984V78.6485Z" fill="white"/>
</mask>
<g mask="url(#mask87_71_1711)">
<path d="M22.1043 87.3458H17.3275L16.4199 89.7012H13.9837L18.5695 78.6754H20.9101L25.5117 89.7012H23.0119L22.1043 87.3458ZM21.3559 85.4001L19.7318 81.1844L18.0918 85.4001H21.3559Z" fill="black"/>
</g>
<path d="M34.1366 83.9664C34.7177 84.1712 35.1755 84.5083 35.5059 84.9734C35.8443 85.4428 36.0154 86.0146 36.0154 86.6973C36.0154 87.6659 35.6651 88.4126 34.9645 88.9332C34.264 89.4452 33.2449 89.7012 31.9074 89.7012H26.5892V78.6754H31.6049C32.8548 78.6754 33.8181 78.9314 34.4869 79.4434C35.1636 79.9555 35.5059 80.6553 35.5059 81.5428C35.5059 82.0804 35.3825 82.5583 35.1397 82.9765C34.9048 83.3989 34.5705 83.7275 34.1366 83.9664ZM28.9458 80.6041V83.1984H31.3183C31.8994 83.1984 32.3413 83.0917 32.6398 82.8741C32.9464 82.6479 33.1016 82.3194 33.1016 81.8841C33.1016 81.4532 32.9464 81.1332 32.6398 80.9283C32.3413 80.715 31.8994 80.6041 31.3183 80.6041H28.9458ZM31.7323 87.7725C32.3572 87.7725 32.8309 87.6659 33.1494 87.4483C33.4678 87.2349 33.627 86.8936 33.627 86.4242C33.627 85.5153 32.9941 85.0588 31.7323 85.0588H28.9458V87.7725H31.7323Z" fill="black"/>
<path d="M44.5937 87.3458H39.817L38.9094 89.7012H36.4732L41.0589 78.6754H43.3995L48.0012 89.7012H45.5013L44.5937 87.3458ZM43.8454 85.4001L42.2213 81.1844L40.5812 85.4001H43.8454Z" fill="black"/>
<path d="M55.5592 89.7012L53.0753 85.878L50.6232 89.7012H47.9004L51.7059 84.0859L48.0915 78.6754H50.7984L53.1549 82.2426L55.4796 78.6754H58.0591L54.4606 84.0006L58.2979 89.7012H55.5592Z" fill="black"/>
<path d="M66.334 87.3458H61.5573L60.6497 89.7012H58.2135L62.7992 78.6754H65.1398L69.7415 89.7012H67.2416L66.334 87.3458ZM65.5857 85.4001L63.9616 81.1844L62.3215 85.4001H65.5857Z" fill="black"/>
<path d="M70.819 78.6754H73.1915V87.6189H78.3504V89.7012H70.819V78.6754Z" fill="black"/>
<path d="M89.0539 89.7012L89.038 83.0789L86.0127 88.5406H84.9299L81.9205 83.2325V89.7012H79.6914V78.6754H81.6499L85.5031 85.5196L89.2927 78.6754H91.2512L91.283 89.7012H89.0539Z" fill="black"/>
<path d="M100.487 87.3458H95.7101L94.8025 89.7012H92.3663L96.952 78.6754H99.2927L103.894 89.7012H101.394L100.487 87.3458ZM99.7385 85.4001L98.1144 81.1844L96.4744 85.4001H99.7385Z" fill="black"/>
</g>
</g>
<mask id="mask88_71_1711" style="mask-type:luminance" maskUnits="userSpaceOnUse" x="2" y="71" width="14" height="23">
<path d="M2.09924 71.0022H15.3469V93.4037H2.09924V71.0022Z" fill="white"/>
</mask>
<g mask="url(#mask88_71_1711)">
<mask id="mask89_71_1711" style="mask-type:luminance" maskUnits="userSpaceOnUse" x="2" y="71" width="14" height="23">
<path d="M15.3469 71.0022H2.09924V93.9413H15.3469V71.0022Z" fill="white"/>
</mask>
<g mask="url(#mask89_71_1711)">
<mask id="mask90_71_1711" style="mask-type:luminance" maskUnits="userSpaceOnUse" x="2" y="74" width="13" height="17">
<path d="M2.15895 74.2792H14.3278V90.6643H2.15895V74.2792Z" fill="white"/>
</mask>
<g mask="url(#mask90_71_1711)">
<path d="M14.2742 75.6916L14.1308 78.5248C14.1308 78.5248 13.9597 78.5205 13.6213 78.5077C13.279 78.4992 12.8172 78.4907 12.2361 78.4907C11.6628 78.4821 11.014 78.4736 10.2935 78.4736C10.2059 79.9756 10.1741 81.4178 10.198 82.7918C10.2179 84.1572 10.2656 85.369 10.3413 86.4272C10.4249 87.4854 10.5005 88.3217 10.5642 88.9362C10.6358 89.5421 10.6756 89.8408 10.6756 89.8408C10.0069 89.9091 9.33018 89.9517 8.65347 89.9603C7.97277 89.9731 7.2881 89.9773 6.59945 89.9773C6.53576 88.6716 6.50391 87.3105 6.50391 85.8981C6.50391 84.4772 6.52382 83.1161 6.5676 81.8189C6.60741 80.5217 6.6512 79.4251 6.69498 78.5248C5.96254 78.5376 5.26195 78.5717 4.5932 78.6272C3.92445 78.6742 3.33929 78.7382 2.84171 78.815C2.84171 78.815 2.80987 78.6784 2.74617 78.4053C2.69045 78.1323 2.65064 77.7866 2.61879 77.3642C2.57899 76.9332 2.57103 76.5065 2.60287 76.0841C2.63472 75.6531 2.73025 75.2819 2.88948 74.9747C3.00492 74.9406 3.22783 74.9235 3.55823 74.9235C3.98018 74.9235 4.53349 74.9406 5.21418 74.9747C5.89089 75.0088 6.63527 75.06 7.44335 75.1283C8.25938 75.1881 9.06745 75.2478 9.86359 75.3161C10.6677 75.3758 11.4001 75.4355 12.0609 75.5038C12.7297 75.5635 13.2631 75.6062 13.6691 75.6403C14.0711 75.6745 14.2742 75.6916 14.2742 75.6916Z" fill="black"/>
</g>
</g>
</g>
</svg>
